<svg width="597" height="546" viewBox="0 0 597 546" fill="none" xmlns="http://www.w3.org/2000/svg">
<g clip-path="url(#clip0_219_403)">
<path fill-rule="evenodd" clip-rule="evenodd" d="M374.509 263.053C372.923 264.979 370.603 266.391 368.812 268.146C366.932 269.99 364.897 271.596 363.025 273.417C355.045 262.531 343.992 255.765 334.466 246.688C329.949 242.385 326.661 236.59 324.279 230.658C323.058 227.617 322.169 224.492 321.485 221.261C321.177 219.806 320.876 218.356 320.682 216.883C320.448 215.099 320.383 214.946 319.293 213.54C318.824 212.935 317.925 211.174 316.986 211.353C316.196 211.503 314.717 214.076 314.21 214.71C311.771 217.756 309.403 220.898 306.839 223.823C302.917 228.299 299.341 232.709 295.69 237.461C288.222 247.183 280.186 256.319 272.078 265.452C271.477 266.129 270.068 268.12 269.215 268.378C268.178 268.691 266.52 267.295 265.491 266.514C263.008 264.627 261.063 262.309 258.951 259.985C254.83 255.45 252.087 249.129 250.268 243.127C249.179 239.534 248.492 235.816 247.366 232.235C246.897 230.742 245.811 228.9 246.395 227.615C246.569 227.232 247.656 226.223 248.035 226.15C248.483 226.064 249.218 226.738 249.373 226.694C250.862 226.277 250.065 224.586 250.96 223.696C251.467 223.191 254.008 223.303 254.771 223.033C257.562 222.044 260.08 220.116 262.721 218.981C273.777 214.234 284.964 209.622 294.564 201.744C297.054 199.702 298.711 198.163 301.665 196.863C304.65 195.549 307.649 194.381 310.692 193.241C313.376 192.235 316.075 191.295 318.843 190.586C321.837 189.82 326.082 188.855 329.045 189.943C334.865 192.079 336.677 197.324 338.925 202.861C341.967 210.353 345.674 217.455 349.705 224.369C357.458 237.672 366.949 249.647 374.509 263.053Z" fill="#BE7445"/>
<path fill-rule="evenodd" clip-rule="evenodd" d="M200.045 143.879C199.725 143.697 197.196 144.767 196.771 144.93C195.076 145.582 193.472 146.683 191.871 147.574L195.45 152.436C196.689 149.288 198.261 146.698 200.045 143.879ZM200.583 163.588C200.168 163.632 203.528 172.773 203.921 173.799C205.352 177.533 206.856 181.232 208.306 184.956C209.711 188.566 211.512 191.894 213.326 195.274C214.877 198.164 216.451 202.636 218.823 204.796C217.413 197.485 217.737 189.109 213.474 182.925C209.055 176.514 204.684 170.254 200.583 163.588ZM374.504 263.377C367.931 251.719 359.639 241.37 352.775 229.914C348.931 223.5 345.193 217.006 341.979 210.191C339.64 205.234 338.246 198.19 334.578 194.372C332.961 192.69 331.232 191.042 329.04 190.266C326.042 189.206 321.878 190.151 318.838 190.91C313.175 192.323 307.629 194.566 302.249 196.928C296.792 199.324 292.102 203.703 287.152 207.204C281.841 210.96 276.113 213.668 270.191 216.026C265.035 218.078 260.43 221.067 255.301 223.134C254.279 223.546 252.207 223.453 251.347 223.997C250.419 224.583 250.755 226.358 249.63 226.995C249.123 227.282 248.971 226.211 248.585 226.223C248.113 226.237 247.673 226.831 247.212 227.204C245.337 228.723 246.457 229.771 247.159 231.911C249.447 238.881 250.627 245.956 253.888 252.553C256.568 257.975 260.447 262.856 265.046 266.487C265.745 267.04 268.02 269.175 268.853 269.047C269.602 268.933 271.155 266.805 271.68 266.228C274.062 263.613 276.245 260.793 278.625 258.173C282.303 254.124 285.847 249.963 289.419 245.856C293.566 241.089 297.253 235.672 301 230.568C302.723 228.22 304.925 226.319 306.834 224.147C309.402 221.226 311.766 218.079 314.205 215.033C314.943 214.112 316.192 211.744 317.317 211.789C318.105 211.82 319.466 213.85 319.869 214.486C321.368 216.849 321.298 221.076 322.017 224.009C323.772 231.161 327.024 238.169 331.544 243.735C336.038 249.27 341.842 253.245 347.188 257.719C352.98 262.567 358.462 267.522 363.02 273.741C364.892 271.919 366.927 270.313 368.807 268.47C370.598 266.714 372.919 265.303 374.504 263.377ZM287.203 294.788C288.514 294.822 290.722 295.728 291.902 295.22C288.485 291.002 285.343 287.38 280.986 284.262C276.465 281.026 271.958 277.818 267.571 274.373C258.731 267.43 252.274 259.256 248.707 247.859C247.788 244.924 247.19 241.852 246.529 238.839C246.174 237.216 245.531 229.641 244.259 228.968C243.505 228.57 237.726 232.832 236.812 233.36C234.677 234.596 232.537 235.546 230.334 236.506C225.597 238.568 220.723 240.122 215.714 241.405C209.708 242.944 205.674 240.191 202.044 235.049C197.926 229.215 194.529 222.65 190.775 216.532C189.068 213.749 187.661 210.975 186.415 207.916C185.6 205.913 182.329 200.496 183.518 198.393C186.781 201.164 187.889 206.592 190.085 210.27C192.822 214.853 195.919 219.181 198.671 223.76C200.985 227.61 203.334 232.27 206.796 235.064C209.841 237.522 212.778 236.824 216.109 235.789C220.147 234.535 224.321 233.949 228.283 232.377C232.571 230.677 236.639 228.236 240.827 226.258C242.78 225.335 245.108 224.829 246.952 223.671C248.542 222.673 248.315 222.13 248.463 219.956C248.636 217.421 248.829 214.884 248.97 212.346C249.065 210.64 248.246 208.314 248.844 207.048C244.111 207.864 239.48 208.982 234.777 209.962C232.203 210.498 229.717 211.172 227.118 211.584C226.128 211.741 224.777 211.717 223.885 212.17C223.182 211.94 222.821 212.074 222.799 212.571C222.762 212.842 222.704 213.107 222.627 213.369C221.169 214.06 220.35 212.519 219.116 211.035C217.594 209.203 216.464 207.148 215.359 205.005C212.889 200.215 210.026 195.701 207.747 190.78C205.424 185.763 203.557 180.4 201.602 175.202C199.808 170.433 198.69 165.287 196.699 160.627C195.81 158.547 194.671 156.821 193.336 155.055C192.235 153.598 190.553 150.465 188.887 149.778C188.446 149.596 187.281 149.873 186.778 149.827C185.775 149.735 184.887 149.323 183.858 149.395C181.631 149.55 179.184 151.036 177.387 152.348C178.519 153.473 181.372 154.862 179.279 156.827C177.248 158.734 176.193 155.243 175.452 153.709C171.806 156.853 172.26 161.27 171.778 165.782C171.526 168.138 170.92 170.453 170.517 172.77C170.227 174.439 170.387 176.171 170.286 177.877C170.029 182.212 169.564 186.36 169.52 190.637C169.473 195.21 169.696 199.63 169.967 204.174C170.422 211.825 171.613 219.489 172.619 227.087C173.185 231.358 173.984 235.511 174.758 239.716C175.636 244.488 177.324 249.021 178.238 253.782C179.261 252.417 180.015 252.422 181.635 252.629C182.88 252.788 183.723 252.479 183.622 254.352C183.557 255.566 182.552 256.48 181.453 256.676C180.019 256.93 179.545 256.152 178.826 254.969C178.621 257.185 179.965 259.525 180.478 261.7C180.964 263.761 181.276 265.779 182.114 267.757C182.932 269.687 183.628 271.589 184.456 273.5C184.838 274.38 185.193 275.273 185.579 276.15C185.774 276.595 186.003 277.206 186.298 277.582C186.991 278.465 186.885 278.041 187.704 278.549C189.488 279.658 188.816 279.378 188.825 281.613C188.833 283.818 189.854 285.453 191.51 286.716C195.025 289.398 198.519 290.181 202.539 291.569C206.284 292.863 210.233 293.983 214.219 294.018C219.101 294.061 223.928 293.44 228.811 293.442C234.197 293.444 239.634 293.557 245.005 293.838C247.218 293.953 249.272 294.091 251.401 294.734C253.872 295.482 256.278 295.235 258.838 295.165C264.299 295.017 269.951 294.643 275.339 294.682C279.217 294.71 283.314 294.478 287.203 294.788ZM428.694 299.175C429.656 299.744 431.835 299.549 432.812 299.409C434.535 299.163 434.73 298.429 435.844 296.787C437.763 293.96 439.327 291.248 440.48 287.957C442.687 281.658 443.646 275.194 444.672 268.586C445.812 261.243 444.042 253.589 443.477 246.271C443.347 244.592 443.16 242.927 442.94 241.26C442.808 240.263 442.82 236.878 442.228 236.007C441.09 234.336 435.665 235.59 433.538 235.709C427.601 236.04 421.629 236.05 415.699 236.035C412.537 236.027 409.356 236.123 406.226 236.103C404.789 236.094 403.385 235.996 401.944 235.823C401.462 235.765 400.993 235.638 400.508 235.602C398.845 235.478 398.974 235.219 398.52 236.807C397.725 239.589 398.252 243.152 398.011 246.049C397.689 249.92 397.488 253.848 397.496 257.732C397.503 261.321 397.337 264.899 397.408 268.497C397.437 269.987 397.57 271.204 397.912 272.631C398.298 274.245 398.694 278.009 399.7 279.137C399.814 279.265 400.688 278.983 400.913 279.302C401.262 279.793 401.181 280.821 401.421 281.138C402.195 282.167 403.826 282.272 405.003 282.746C408.234 284.047 411.194 285.453 414.23 287.189C416.944 288.74 421.336 290.091 422.936 293.094C423.67 294.472 423.745 296.274 424.418 297.694C425.184 299.311 423.616 298.448 425.541 299.128C426.408 299.434 427.801 299.162 428.694 299.175ZM140.543 276.744C140.242 280.447 138.26 283.95 137.534 287.585C137.195 289.287 136.636 290.957 136.242 292.648C135.863 294.271 134.555 296.18 134.66 297.792C139.412 296.04 144.205 295.653 149.151 295.235C153.838 294.839 158.785 294.727 163.427 294.793C168.156 294.861 173.221 294.436 178.091 294.43C183.185 294.425 188.357 294.359 193.385 293.862C190.791 291.719 187.537 289.695 185.642 286.74C183.583 283.527 182.548 279.525 180.744 276.141C177.124 269.349 174.883 260.954 173.045 253.357C169.335 238.019 165.158 222.957 164.332 207.093C162.298 208.181 160.632 212.496 159.59 214.641C158.259 217.381 157.54 220.361 156.658 223.28C154.842 229.293 153.555 235.537 151.352 241.487C147.143 252.86 144.364 265.141 140.543 276.744ZM398.35 191.494C399.122 198.341 400.852 205.29 400.82 212.207C400.813 213.728 400.55 215.415 400.821 216.919C401.11 218.525 402.107 219.956 402.672 221.487C403.569 223.918 405.857 228.905 403.549 230.919C403.532 228.975 401.925 226.484 401.123 224.772C399.913 222.194 398.309 219.829 396.994 217.312C394.241 212.045 391.145 206.884 387.565 202.224C384.078 197.684 380.042 193.643 376.338 189.314C375.225 188.013 366.327 175.522 365.964 175.69C368.606 187.486 373.243 197.785 379.65 207.724C382.791 212.597 386.6 215.829 390.451 219.974C393.657 223.427 399.742 227.157 398.533 232.718C403.633 232.264 408.703 231.492 413.841 231.568C413.1 224.52 412.556 217.585 411.15 210.641C409.554 202.757 408.514 194.646 407.183 186.696C405.824 178.58 403.432 170.706 401.991 162.604C400.614 154.863 399.438 147.08 398.463 139.266C397.493 143.587 397.757 148.353 397.37 152.77C396.975 157.284 396.941 161.719 396.983 166.266C397.06 174.71 397.768 183.062 398.35 191.494ZM421.009 151.575C421.091 147.962 421.79 144.407 422.043 140.805C422.121 139.7 423.251 132.17 422.307 131.762C421.499 133.592 421.283 135.946 420.545 137.868C419.808 139.788 418.833 141.614 418.125 143.548C416.59 147.737 416.011 152.496 415.786 156.97C415.277 167.093 414.942 177.196 415.421 187.333C415.626 191.678 415.768 196.029 415.63 200.378C415.478 205.162 414.739 209.307 415.492 214.066C416.236 218.779 416.678 223.467 416.879 228.241C417.019 231.591 417.099 231.355 420.054 231.164C422.187 231.025 424.336 231.238 426.471 231.165C425.667 218.104 425.698 205.028 424.297 192.008C423.582 185.366 423.66 178.64 422.748 172.019C422.295 168.73 421.5 165.503 421.065 162.21C420.598 158.675 420.906 155.128 421.009 151.575ZM205.318 140.166C210.991 140.783 217.008 142.711 222.849 141.583C221.895 141.148 219.392 140.531 220.547 138.887C221.722 137.215 223.627 139.386 224.777 139.182C225.486 139.055 227.095 135.88 227.541 135.225C228.552 133.735 228.675 133.475 230.459 133.115C232.187 132.768 232.572 133.178 232.818 131.327C233.1 129.2 232.454 126.793 232.554 124.615C232.768 119.925 234.228 115.831 235.595 111.436C230.045 112.656 224.613 114.12 218.945 114.875C216.522 115.199 212.749 115.971 210.579 114.16C210.015 113.689 210.115 113.066 209.656 112.523C208.885 111.612 207.445 110.66 206.337 110.387C199.52 108.71 198.696 119.253 202.066 123.253C202.91 124.256 204.097 124.762 204.963 125.682C206.119 126.908 206.196 128.184 206.34 130.032C206.61 133.498 206.122 136.967 204.71 140.113L205.318 140.166ZM287.596 191.219C289.609 191.663 291.719 191.6 293.738 191.984C294.456 192.12 296.606 192.591 297.245 192.145C298.221 191.465 298.602 188.921 299.077 187.741C299.911 185.665 301.074 183.861 301.871 181.746C305.13 173.11 308.178 164.435 312.087 156.106C310.642 155.676 309.529 155.643 308.07 155.411C306.55 155.168 305.183 154.174 303.736 153.733C302.361 153.315 300.913 153.395 299.551 152.912C298.801 152.646 298.162 152.069 297.422 151.86C296.242 151.528 294.862 151.322 294.145 152.154C293.41 153.006 293.122 155.369 292.712 156.478C291.622 159.433 290.364 162.282 289.442 165.307C288.611 168.036 287.819 170.736 287.082 173.491C286.303 176.4 284.817 178.785 283.893 181.561C283.19 183.673 282.524 185.834 282.39 188.096C282.26 190.303 281.96 190.439 283.996 190.823C285.024 191.016 286.619 191.702 287.596 191.219ZM418.938 296.554C419.46 296.826 419.957 296.799 420.427 296.47C415.898 294.318 411.505 291.361 406.769 289.861C402.326 288.454 398.012 286.787 393.737 285.071C390.264 283.678 387.138 282.586 384.015 280.178C382.119 278.716 380.44 277.078 379.153 274.963C377.721 272.609 377.444 269.284 375.887 267.16C373.705 269.676 371.158 271.569 368.591 273.556C367.704 274.243 365.576 275.739 365.26 276.819C364.861 278.181 365.856 279.504 366.337 280.896C367.57 284.46 368.146 288.013 368.788 291.709C369.046 293.19 369.617 295.419 370.729 296.055C371.741 296.633 374.704 296.267 375.976 296.182C382.613 295.736 389.132 295.276 395.793 295.87C403.33 296.542 411.403 297.048 418.938 296.554ZM433.151 231.059C434.356 231.082 435.535 230.936 436.735 230.954C436.094 227.443 437.781 222.937 438.407 219.451C439.107 215.552 439.656 211.517 440.143 207.584C441.169 199.298 441.7 191.106 441.835 182.746C441.966 174.657 443.437 167.285 445.458 159.537C447.629 151.215 451.092 143.755 453.982 135.741C450.917 137.435 449.174 141.479 447.53 144.566C445.453 148.47 444.043 152.805 443.153 157.209C441.436 165.704 439.565 174.222 437.603 182.699C435.561 191.525 434.305 200.445 431.985 209.194C430.854 213.462 429.324 218.709 429.178 223.125C429.117 224.951 428.552 228.77 429.294 230.368C429.987 231.863 431.58 231.187 433.151 231.059ZM251.473 217.378C251.396 218.286 251.323 219.15 251.161 220.046C252.829 220.054 254.971 218.211 256.414 217.392C258.173 216.393 259.935 215.289 261.655 214.284C264.977 212.344 268.733 211.089 272.272 209.507C276.338 207.69 280.083 205.477 283.977 203.275C285.338 202.506 295.099 198.102 294.954 196.858L288.573 196.533C286.749 196.441 283.917 196.845 282.179 196.209C281.227 195.86 280.171 194.613 279.824 193.643C279.481 192.684 280.349 188.307 279.886 188.021C277.465 190.617 275.916 194.092 273.744 196.9C271.345 200.003 268.277 201.79 264.901 203.407C261.172 205.194 257.321 206.563 253.515 208.085C251.91 208.727 251.936 209.109 251.769 210.999C251.582 213.112 251.567 215.258 251.473 217.378ZM442.611 299.812C446.616 300.338 450.732 300.133 454.77 300.556C456.239 300.71 458.275 300.937 456.764 303.052C455.812 304.384 452.832 303.908 451.477 303.981C447.837 304.177 443.989 303.986 440.345 303.874C439.578 303.851 438.734 303.591 437.958 303.635C437.062 303.685 435.979 304.367 435.164 304.349C434.661 304.338 434.489 303.762 434.056 303.702C433.113 303.574 432.17 303.476 431.217 303.462C416.812 303.252 402.61 302.728 388.242 302.498C381.371 302.389 374.392 302.157 367.53 301.706C366.089 301.611 357.871 301.809 358.14 299.002C358.278 297.556 360.962 297.392 361.942 297.253C362.669 297.15 363.421 297.179 364.147 297.147C366.079 297.064 366.916 297.579 366.543 295.289C365.128 286.6 362.467 279.397 356.649 273.079C351.891 267.912 346.14 263.204 340.729 258.869C334.158 253.604 328.847 248.091 325.017 240.127C322.781 235.477 320.922 230.729 319.814 225.607C319.415 223.765 319.436 221.676 318.94 219.898C318.558 218.529 317.657 217.562 317.139 216.142C310.348 227.997 301.435 237.868 293.239 248.526C289.322 253.619 284.869 258.444 280.215 262.856C278.833 264.165 277.542 265.534 276.25 266.946C275.169 268.127 273.466 269.166 272.549 270.481C271.669 271.743 271.882 271.685 273.177 272.717C274.89 274.079 276.783 275.219 278.523 276.549C281.305 278.675 284.349 280.482 286.826 283.028C289.506 285.782 291.836 288.96 294.168 292.055C295.722 294.117 297.763 296.765 298.123 299.349C298.242 300.204 298.712 302.321 298.041 302.936C297.468 303.461 297.528 303.26 296.831 302.924C295.918 302.483 295.662 301.5 294.545 301.017C291.689 299.781 288.204 300.139 285.214 300.08C282.222 300.021 279.2 300.34 276.21 300.283C269.381 300.151 262.689 300.651 255.857 300.871C248.601 301.104 241.273 300.177 234.045 300.185C228.689 300.192 223.199 299.678 217.691 299.918C214.859 300.041 212.085 299.617 209.326 299.533C205.714 299.423 201.995 299.9 198.35 299.922C192.367 299.958 186.459 299.87 180.439 299.936C167.491 300.08 154.612 300.235 141.657 300.265C139.929 300.269 138.039 300.178 136.328 300.363C134.513 300.56 135.442 300.99 134.189 301.678C130.679 303.602 131.591 296.289 131.696 294.85C132.258 287.137 134.181 279.593 136.466 272.296C138.633 265.376 140.418 258.125 142.271 251.05C144.301 243.306 146.905 235.889 149.284 228.227C151.721 220.375 153.732 212.21 158.05 205.281C159.033 203.704 160.051 202.005 161.61 201.025C163.357 199.925 163.422 200.583 163.451 198.524C163.479 196.584 163.628 193.995 163.232 192.137C162.875 190.46 162.919 191.452 162.076 190.238C161.39 189.25 160.667 188.572 160.182 187.378C157.045 190.72 150.005 188.828 147.059 186.344C143.452 183.305 140.746 178.227 139.798 173.415C139.037 169.551 140.15 162.223 144.117 160.429C146.051 159.555 153.116 158.977 153.442 156.038C153.61 154.521 151.159 152.348 150.605 151.033C149.579 148.597 148.607 145.363 148.352 142.706C147.852 137.519 150.11 131.761 153.622 128.315C160.065 121.992 171.283 118.865 179.388 123.057C177.768 115.899 176.818 109.73 177.797 102.323C178.64 95.9415 182.178 92.4168 187.021 89.3039C195.285 83.9912 206.445 82.0114 215.779 83.7301C217.9 84.1208 219.93 84.9213 221.889 85.5629C224.736 86.4961 228.165 86.2503 230.844 87.7364C232.787 88.8144 234.243 90.9252 235.942 92.345C237.925 94.0033 239.558 96.4578 240.919 98.7262C243.831 103.576 242.533 112.478 239.965 117.265C239.414 118.292 238.74 119.153 237.844 119.846C236.91 120.567 235.501 120.775 235.012 121.721C233.758 124.144 234.854 129.447 234.977 132.088C235.121 135.155 233.656 137.435 230.441 137.632C228.582 137.746 228.54 136.579 227.615 138.965C227.016 140.512 226.467 142.198 225.614 143.611C223.856 146.524 220.72 146.191 217.86 146.069C214.549 145.927 211.296 145.313 207.987 144.906C208.818 147.954 211.178 150.344 212.634 153.07C214.603 156.756 215.775 159.804 216.041 164.069C216.245 167.346 215.662 169.922 213.556 172.327C212.685 173.323 211.925 173.361 212.12 174.527C212.239 175.239 213.355 176.426 213.748 176.998C214.787 178.512 215.999 179.905 216.91 181.518C220.413 187.727 221.335 197.126 221.238 204.292C221.234 204.62 221.385 205.322 221.246 205.659C221.143 205.909 220.377 206.693 220.365 206.761C220.204 207.68 221.011 209.271 222.311 209.447C223.677 209.631 226.2 208.433 227.479 208.046C229.525 207.426 231.608 206.977 233.65 206.34C236.947 205.311 240.227 204.5 243.576 203.705C245.089 203.346 246.61 203.051 248.127 202.717C249.856 202.336 250.668 201.564 251.529 203.474C252.268 205.113 251.789 205.401 253.649 204.608C255.496 203.82 257.304 202.837 259.109 201.943C262.292 200.368 266.076 198.978 268.837 196.624C273.443 192.697 275.22 186.361 279.634 182.187C280.863 181.025 281.586 181.015 282.376 179.391C283.222 177.653 283.679 175.416 284.137 173.54C284.941 170.255 285.528 166.956 286.261 163.673C287.175 159.583 289.074 155.895 290.477 152.003C291.024 150.486 291.325 148.552 292.19 147.195C292.42 146.835 292.851 146.636 293.03 146.338C293.647 145.315 293.645 145.031 293.819 143.792C294.634 138.001 297.789 141.1 301.267 142.483C302.732 143.065 309.675 146.805 306.968 149.183C310.138 150.23 315.247 149.762 315.131 154.701C315.071 157.231 313.632 159.918 312.847 162.276C312.148 164.369 311.473 166.471 310.764 168.561C309.212 173.14 307.346 177.576 305.829 182.169C305.138 184.262 304.562 186.406 303.613 188.377C302.777 190.116 300.786 192.017 300.434 193.926C308.98 190.134 316.915 184.585 326.41 185.087C330.567 185.306 334.314 187.255 336.553 191.247C339.36 196.25 341.172 201.832 343.913 206.881C353.884 225.247 365.854 241.974 376.837 259.6C377.681 260.955 378.772 262.24 379.047 263.902C379.227 264.987 378.832 266.063 379.051 267.106C379.505 269.273 381.922 272.006 383.57 273.272C386.729 275.698 391.871 279.131 395.861 278.893C393.456 272.35 393.595 265.223 393.814 258.286C394.023 251.696 394.778 245.167 395.656 238.655C395.855 237.182 396.029 235.816 396.442 234.391C396.916 232.757 397.532 232.922 396.206 231.426C394.166 229.124 391.727 227.218 389.671 224.888C385.223 219.847 380.647 215.88 377.176 209.888C373.876 204.188 370.392 198.323 367.978 192.1C365.494 185.693 364.563 178.877 363.383 172.113C362.904 169.369 361.055 166.286 361.478 163.433C362.013 159.829 363.522 162.482 364.123 164.435C365.958 170.397 370.381 175.774 374.039 180.601C377.991 185.816 382.855 190.202 386.986 195.269C391.484 200.788 394.528 207.099 398.514 212.978C398.621 205.757 396.451 198.37 395.625 191.212C394.898 184.912 394.734 178.601 394.31 172.278C393.345 157.916 394.581 143.163 396.444 128.945C397.33 122.193 396.982 115.581 397.107 108.794C397.146 106.634 396.394 101.644 397.475 99.7423C399.546 96.1007 400.604 104.146 400.688 105.345C401.192 112.484 399.994 119.519 400.448 126.627C400.922 134.05 402.082 141.275 403.051 148.619C404.102 156.572 405.889 164.356 407.594 172.165C409.385 180.365 410.869 188.731 412.874 196.869C413.485 194.329 412.727 191.187 412.607 188.589C412.435 184.872 412.047 181.151 412.064 177.428C412.09 171.492 412.137 165.448 412.535 159.546C412.927 153.728 412.925 147.627 414.658 142.042C415.481 139.392 416.668 136.811 417.829 134.32C419.261 131.249 419.795 128.258 420.612 124.98C421.311 122.173 422.314 119.445 422.795 116.579C423.094 114.796 423.932 109.533 425.763 113.557C426.826 115.893 426.301 119.324 426.294 121.816C426.286 125.011 425.789 128.11 425.672 131.291C425.445 137.53 425.256 143.762 424.733 149.986C424.185 156.517 424.492 162.38 425.546 168.839C426.699 175.908 426.963 182.979 427.509 190.126C427.79 193.816 428.303 197.489 428.522 201.183C428.637 203.139 427.812 208.732 429.085 210.143C429.26 206.76 430.207 203.385 430.935 200.097C431.798 196.202 432.184 192.099 432.836 188.145C433.891 181.738 435.846 175.634 437.174 169.303C439.91 156.253 442.271 139.464 453.052 131.055C454.462 129.955 456.007 129.151 457.527 128.25C458.388 127.741 459.675 126.409 460.655 126.187C461.724 125.946 462.166 126.152 462.578 127.496C463.152 129.37 462.038 130.225 460.99 131.564C457.362 136.197 455.753 142.182 453.475 147.646C448.257 160.157 445.834 173.399 445.607 187.002C445.488 194.124 444.932 200.986 444.126 208.055C443.258 215.661 442.144 223.703 439.896 231C442.034 231.552 444.373 230.811 444.915 233.518C445.048 234.183 444.778 234.963 444.923 235.827C445.065 236.669 445.422 237.508 445.629 238.336C446.056 240.049 446.27 241.735 446.464 243.49C447.214 250.272 448.579 256.732 448.632 263.598C448.681 269.945 447.438 276.356 446.289 282.562C445.13 288.814 441.995 294.111 439.506 299.743C440.541 299.759 441.576 299.785 442.611 299.812Z" fill="black"/>
<path fill-rule="evenodd" clip-rule="evenodd" d="M306.673 283.388C305.527 283.72 300.009 284.297 299.982 286.167C299.966 287.289 305.467 287.349 306.439 287.485L306.673 283.388M318.639 296.474C321.803 297.174 326.125 296.32 328.199 293.321C329.168 291.921 329.65 289.775 329.984 288.091C330.302 286.487 331.272 282.485 330.675 280.967C329.942 279.103 322.621 280.931 320.494 281.112C316.784 281.427 312.952 281.415 309.248 281.098C309.187 285.241 308.931 289.275 311.13 292.874C312.716 295.471 315.758 296.123 318.639 296.474M317.925 301.581C314.497 300.164 310.863 300.998 308.677 296.958C308.122 295.933 307.658 294.833 307.33 293.699C307.169 293.202 307.045 292.692 306.96 292.173C307.153 291.059 306.779 290.739 305.84 291.212C304.018 290.801 301.994 292.129 300.074 291.699C295.419 290.66 296.374 283.433 299.545 280.974C300.172 280.488 300.792 280.359 301.504 280.125C303.074 279.61 303.911 280.224 305.342 280.092C306.499 279.986 306.836 278.68 308.085 278.121C308.903 277.756 310.031 277.802 310.885 277.776C315.358 277.644 319.842 277.712 324.345 277.464C326.445 277.348 328.706 277.741 330.767 277.383C331.732 277.216 331.604 276.52 332.506 277.142C333.44 277.786 332.998 280.108 332.937 281.036C332.582 286.4 332.201 292.154 329.474 296.808C326.979 301.066 322.188 301.435 317.925 301.581ZM135.774 300.361C136.884 300.365 137.993 300.368 139.099 300.373L135.774 300.361ZM163.252 191.014L163.192 194.382C163.212 193.257 163.232 192.136 163.252 191.014M253.873 300.837C254.756 300.852 255.638 300.866 256.517 300.882C255.633 300.868 254.753 300.853 253.873 300.837ZM200.278 299.814C201.161 299.83 202.043 299.846 202.922 299.863C202.038 299.847 201.158 299.83 200.278 299.814ZM442.612 299.812C441.93 299.795 441.247 299.777 440.565 299.759C441.255 299.46 441.937 299.484 442.612 299.812ZM381.998 302.272C382.488 302.271 382.977 302.27 383.463 302.269C382.972 302.269 382.485 302.271 381.998 302.272ZM445.158 199.814L445.22 198.097L445.158 199.814M289.912 300.173C290.347 300.186 290.783 300.199 291.214 300.212C290.778 300.198 290.345 300.186 289.912 300.173ZM402.027 302.801C402.452 302.816 402.878 302.832 403.299 302.847L402.027 302.801M448.61 261.813C448.587 261.293 448.564 260.773 448.542 260.253C448.565 260.774 448.587 261.294 448.61 261.813ZM440.346 303.874C440.691 303.877 441.036 303.88 441.381 303.884C441.036 303.881 440.691 303.878 440.346 303.874Z" fill="black"/>
<path fill-rule="evenodd" clip-rule="evenodd" d="M316.06 301.267C316.438 301.27 316.815 301.274 317.189 301.276L316.06 301.267M311.452 150.302L309.82 150.125C310.365 150.174 310.947 149.834 311.452 150.302M445.356 196.588L445.367 195.115C445.653 195.609 445.634 196.099 445.356 196.588ZM393.819 266.387C393.807 266.879 393.796 267.371 393.784 267.862C393.491 267.361 393.558 266.871 393.819 266.387ZM146.144 159.986C145.78 160.49 145.3 160.134 144.876 160.189C145.299 160.121 145.721 160.054 146.144 159.986ZM172.346 121.337L170.989 121.346C171.441 121.068 171.893 120.992 172.346 121.337ZM397.177 115.667C397.135 116.095 397.094 116.524 397.052 116.952L397.177 115.667ZM424.345 155.825C424.34 155.398 424.336 154.972 424.33 154.547C424.336 154.974 424.34 155.399 424.345 155.825ZM212.765 83.2377L211.507 83.2191C211.931 82.9138 212.35 82.9279 212.765 83.2377ZM323.271 185.245L321.893 185.262C322.35 184.923 322.809 184.922 323.271 185.245M361.714 301.219C361.986 301.229 362.259 301.24 362.527 301.251C362.254 301.241 361.984 301.23 361.714 301.219ZM448.448 256.877C448.413 256.455 448.379 256.033 448.345 255.612L448.448 256.877ZM213.738 300.003C214.024 300.003 214.31 300.002 214.594 300.002C214.306 300.003 214.022 300.003 213.738 300.003ZM317.925 301.581L318.757 301.553L317.925 301.581M428.715 303.43C428.991 303.455 429.268 303.481 429.541 303.506L428.715 303.43M431.217 303.462C431.499 303.475 431.781 303.489 432.06 303.499C431.777 303.486 431.497 303.474 431.217 303.462ZM205.318 140.166C206.061 140.247 206.806 140.328 207.548 140.409L205.318 140.166ZM428.694 299.175L431.024 299.362C430.241 299.389 429.444 299.618 428.694 299.175ZM423.109 231.151L425.155 231.21L423.109 231.15M418.938 296.553C419.435 296.525 419.932 296.496 420.428 296.468C420.05 296.786 419.674 296.808 418.938 296.553ZM416.694 223.769L416.77 225.568L416.694 223.768M417.185 231.184L419.036 231.168C418.421 231.478 417.804 231.48 417.185 231.184ZM273.528 294.629L275.339 294.682C274.726 295.003 274.12 295.04 273.528 294.629M159.741 294.869C160.355 294.819 160.969 294.769 161.583 294.718L159.741 294.869ZM220.195 141.8C220.716 141.532 221.237 141.494 221.759 141.794L220.195 141.8ZM442.067 178.769C441.809 178.268 441.826 177.774 442.102 177.288L442.067 178.769ZM433.151 231.059C433.685 230.891 434.221 230.649 434.744 231.089L433.151 231.059ZM186.935 294.05C187.428 293.824 187.919 293.709 188.397 294.09L186.935 294.05ZM287.203 294.788C287.731 294.548 288.256 294.419 288.767 294.829L287.203 294.788ZM171.618 219.679L171.713 221.216C171.681 220.703 171.649 220.191 171.618 219.679ZM293.738 191.984C294.257 191.788 294.772 191.69 295.274 192.037C294.762 192.019 294.25 192.001 293.738 191.984M140.543 276.743L140.447 277.917C140.48 277.525 140.512 277.134 140.543 276.744M386.813 295.506L388.191 295.537C387.731 295.526 387.272 295.516 386.813 295.506ZM251.322 219.157L251.566 220.048C250.991 220.189 250.91 219.892 251.322 219.157ZM286.196 191.204L287.596 191.218C287.127 191.451 286.658 191.609 286.196 191.204ZM175.711 294.374L177.062 294.393C176.611 294.386 176.161 294.38 175.711 294.374ZM398.782 230.191L398.814 231.427C398.804 231.013 398.793 230.602 398.782 230.191ZM166.139 294.734C166.587 294.422 167.031 294.457 167.471 294.749L166.139 294.734ZM179.882 154.607C179.9 155.028 179.918 155.45 179.936 155.868C179.919 155.446 179.9 155.027 179.882 154.607ZM163.834 294.744L165.215 294.77C164.748 295.104 164.288 295.113 163.834 294.744ZM421.009 151.575L421.038 150.293L421.009 151.574M317.471 281.313C317.177 281.314 316.884 281.314 316.592 281.317C316.885 281.317 317.178 281.315 317.471 281.313ZM235.723 261.869C236.262 265.505 231.001 268.975 230.664 263.813C230.541 261.925 231.726 260.617 233.048 259.484C234.924 257.875 235.935 259.457 235.723 261.869M178.963 216.766C180.182 217.327 189.508 220.772 184.614 222.363C183.318 222.784 181.369 222.821 180.263 222.029C178.932 221.075 177.617 218.301 178.963 216.766ZM181.998 167.681C185.186 167.328 188.034 173.027 184.114 172.786C181.26 172.609 177.493 167.614 181.998 167.681M193.176 181.717C195.796 184.265 190.787 189.808 188.864 187.605C187.882 186.48 188.839 184.103 189.677 183.186C190.537 182.246 192.044 182.089 193.176 181.717ZM200.123 246.875C198.55 247.122 191.615 249.459 193.12 245.049C193.693 243.368 195.216 243.892 196.614 243.99C198.867 244.148 200.165 244.05 200.123 246.875ZM195.41 258.221C197.738 259.615 194.192 267.173 192.27 265.525C189.602 263.239 193.361 258.874 195.41 258.221ZM205.742 252.256C206.892 251.768 212.192 257.452 210.119 258.98C209.057 259.763 207.088 258.364 206.467 257.529C205.303 255.963 205.223 254.051 205.742 252.256M175.363 205.996C176.528 206.221 178.542 206.317 178.591 208.092C178.634 209.653 176.819 210.132 175.545 210.236C174.223 210.343 172.481 209.914 172.483 208.117C172.485 206.179 175.317 206.338 175.363 205.996M203 283.655C204.231 284.489 209.985 287.515 207.468 289.602C206.526 290.383 203.731 288.7 203.109 287.856C202.367 286.849 201.661 284.505 203 283.655M219.433 262.56C219.301 259.312 224.38 258.095 223.263 262.686C222.948 263.98 222.632 265.947 221.147 266.001C219.392 266.064 219.362 263.817 219.433 262.56ZM204.64 205.896C204.639 208.358 200.248 210.465 200.272 206.562C200.294 203.074 204.859 202.122 204.64 205.896M201.952 193.032C203.021 193.422 204.445 193.636 204.517 195.114C204.595 196.679 203.243 197.354 202.037 197.249C201.048 197.162 199.595 196.347 199.432 195.182C199.194 193.472 200.734 193.384 201.952 193.032ZM181.312 237.807C181.324 235.775 185.122 233.39 185.78 235.757C185.99 236.515 184.167 239.87 183.573 240.115C182.003 240.762 181.808 239.197 181.312 237.807ZM211.638 272.074C210.349 273.286 206.484 276.689 206.838 272.05C207.064 269.087 212.014 269.315 211.638 272.074ZM273.569 286.265C274.015 284.319 279.931 287.795 277.903 290.231C277.223 291.049 275.487 290.274 274.822 289.774C273.507 288.783 273.491 287.886 273.569 286.265ZM240.948 243.982C241.194 243.116 241.475 241.58 242.251 241.036C243.654 240.052 244.84 241.586 244.817 243.183C244.773 246.164 241.624 247.057 240.948 243.982ZM225.646 278.609C227.189 279.016 230.578 283.142 228.553 284.774C226.604 286.345 224.14 279.804 225.646 278.609ZM227.578 247.787C229.567 247.989 232.252 251.52 229.149 252.029C226.721 252.427 223.961 248.589 227.578 247.787ZM245.37 264.115C245.897 262.302 250.807 264.326 250.5 266.326C250.337 267.39 248.313 267.61 247.256 267.313C245.699 266.875 245.31 265.759 245.37 264.115ZM188.653 161.569C188.724 159.216 192.918 158.318 193.189 160.695C193.434 162.842 188.549 165.05 188.653 161.569ZM243.63 288.347C243.949 287.168 244.1 285.746 245.468 285.61C247.035 285.454 246.97 286.751 246.766 288.094C246.211 291.746 244.298 291.9 243.63 288.347ZM179.082 189.436C176.895 189.936 172.972 185.336 175.425 184.398C177.154 183.736 179.102 188.066 179.082 189.436ZM206.348 225.121C205.231 225.67 204.971 226.009 204.133 225.069C203.403 224.25 203.469 222.001 204.118 221.17C206.604 217.99 206.46 223.821 206.348 225.121ZM215.492 218.731C216.646 218.907 220.03 222.485 218.22 223.86C216.002 225.546 214.841 220.147 215.492 218.731ZM240.498 220.031C239.606 223.521 237.543 221.133 237.701 218.484C237.955 214.241 240.074 217.971 240.498 220.031ZM252.422 276.479C253.835 277.136 255.678 283.048 253.642 283.334C251.355 283.654 252.203 277.701 252.422 276.479ZM234.711 272.91C236.347 272.34 236.888 276.064 235.932 276.74C233.829 278.227 234.334 273.781 234.711 272.91Z" fill="black"/>
<path fill-rule="evenodd" clip-rule="evenodd" d="M219.433 262.56L219.349 264.035C219.376 263.542 219.404 263.051 219.433 262.56M245.37 264.115C245.355 264.544 245.339 264.973 245.322 265.399C245.338 264.969 245.354 264.542 245.37 264.115ZM425.475 259.4C428.851 259.333 432.635 258.015 435.943 258.501C436.854 258.635 438.951 258.915 437.468 260.358C436.758 261.048 433.415 260.637 432.398 260.854C426.183 262.182 419.138 262.993 412.788 262.78C409.815 262.681 406.824 262.379 403.855 262.165C400.887 261.951 400.615 260.64 403.963 260.274C407.44 259.895 410.999 260.108 414.487 260.154C418.153 260.204 421.812 259.611 425.475 259.4ZM433.012 250.714C432.673 251.71 432.353 254.002 431.107 254.134C429.361 254.319 429.121 251.076 429.202 249.893C429.301 248.465 429.812 246.097 431.446 246.617C432.827 247.056 432.928 249.569 433.012 250.714ZM422.472 249.825C422.743 248.758 422.904 246.344 424.305 246.283C425.871 246.214 426.281 248.738 426.253 249.943C426.226 251.088 425.802 253.245 424.552 253.491C422.858 253.824 422.748 251.054 422.472 249.825ZM404.873 251.486C404.347 252.767 403.985 254.535 402.429 253.634C401.226 252.937 401.098 250.197 401.345 248.946C401.601 247.651 402.125 246.168 403.496 246.773C405.076 247.471 404.877 250.068 404.873 251.486ZM418.197 250.494C416.628 255.378 413.95 252.019 415.04 248.371C416.179 244.559 418.092 248.306 418.197 250.494ZM410.906 250.629C410.478 251.487 410.008 253.344 408.892 253.131C407.523 252.87 407.521 250.011 407.687 248.949C407.833 248.019 408.242 246.472 409.391 246.509C411.05 246.563 410.895 249.511 410.906 250.629ZM440.726 252.013C439.572 254.7 438.075 252.349 438.594 250.436C439.363 247.6 440.69 250.142 440.726 252.013Z" fill="black"/>
<path fill-rule="evenodd" clip-rule="evenodd" d="M413.333 260.141L409.685 260.072C410.906 259.842 412.124 259.763 413.333 260.141ZM437.525 258.514L434.362 258.489C435.419 258.163 436.474 258.171 437.525 258.514ZM404.873 251.486C404.875 250.831 404.877 250.175 404.879 249.52C405.181 250.177 405.15 250.832 404.873 251.486ZM416.529 260.18L414.487 260.154C415.172 259.854 415.852 259.855 416.529 260.18ZM410.906 250.629C410.899 249.946 410.893 249.262 410.887 248.579C410.894 249.263 410.9 249.946 410.906 250.629ZM440.726 252.013L440.693 250.266L440.726 252.013M204.074 121.02C202.433 120.528 202.162 118.018 202.449 116.483L203.383 114.272L203.043 113.445C203.216 111.92 202.841 111.251 204.454 111.893C207.449 113.087 207.814 120.957 204.074 121.02ZM228.529 116.538C229.888 116.442 232.327 118.189 230.952 119.824C230.1 120.836 227.349 120.31 226.221 120.508C224.725 120.77 223.163 121.135 224.006 118.728C224.668 116.838 226.938 116.465 228.529 116.538ZM226.933 127.893C225.572 126.676 226.268 121.237 228.351 122.248C230.494 123.289 228.095 127.124 226.933 127.893Z" fill="black"/>
<path fill-rule="evenodd" clip-rule="evenodd" d="M202.449 116.483C202.441 117.057 202.432 117.63 202.422 118.201C202.143 117.622 202.161 117.051 202.449 116.483ZM204.074 121.02C204.355 121.015 204.636 121.011 204.914 121.007C204.631 121.012 204.353 121.016 204.074 121.02ZM371.949 280.453C371.784 282.93 369.352 281.061 369.55 279.406C369.912 276.402 371.44 279.398 371.949 280.453Z" fill="black"/>
</g>
<rect width="65.2117" height="585.598" transform="matrix(-0.0565966 0.998397 -0.999901 0.014051 593.966 452.645)" fill="#BE7445"/>
<path d="M69.561 485.094L61.2202 499.316C60.488 500.575 59.6386 501.527 58.6722 502.174C57.7232 502.804 56.7071 503.127 55.6239 503.144C54.7574 503.157 53.9088 502.987 53.0781 502.634L54.0119 500.075C54.6838 500.281 55.2447 500.381 55.6947 500.374C56.7445 500.358 57.6395 499.803 58.3797 498.711L58.677 498.283L52.388 485.357L55.8626 485.304L60.4975 495.486L66.3614 485.143L69.561 485.094ZM79.4883 495.045L76.2387 495.095L75.8514 502.46L72.6518 502.509L73.5707 485.033L76.7703 484.984L76.3857 492.299L79.7353 492.248L85.1443 484.856L88.5939 484.803L82.1746 493.358L87.9 502.276L84.2254 502.332L79.4883 495.045ZM99.9737 484.629C101.49 484.606 102.794 484.835 103.884 485.318C104.991 485.8 105.82 486.502 106.371 487.425C106.922 488.348 107.163 489.45 107.096 490.732C107.029 491.996 106.671 493.108 106.021 494.066C105.373 495.007 104.468 495.736 103.309 496.253C102.166 496.769 100.836 497.039 99.3199 497.062L95.3704 497.122L95.1052 502.165L91.8556 502.215L92.7745 484.739L99.9737 484.629ZM99.3143 494.318C100.731 494.296 101.821 493.98 102.586 493.37C103.351 492.76 103.763 491.897 103.821 490.782C103.88 489.666 103.558 488.815 102.857 488.227C102.155 487.639 101.096 487.356 99.6793 487.378L95.8797 487.436L95.5148 494.376L99.3143 494.318ZM122.26 497.709L113.511 497.843L111.574 501.913L108.224 501.965L117.017 484.368L120.217 484.319L127.197 501.674L123.798 501.726L122.26 497.709ZM121.319 495.179L118.422 487.59L114.745 495.279L121.319 495.179ZM132.449 484.132L135.699 484.082L134.78 501.558L131.53 501.608L132.449 484.132ZM131.739 482.447C131.305 482.453 130.954 482.317 130.686 482.039C130.418 481.76 130.295 481.404 130.317 480.972C130.341 480.522 130.502 480.154 130.8 479.867C131.098 479.579 131.464 479.433 131.897 479.426C132.331 479.419 132.681 479.555 132.95 479.834C133.218 480.112 133.341 480.476 133.317 480.926C133.294 481.359 133.134 481.719 132.836 482.006C132.538 482.293 132.172 482.44 131.739 482.447ZM136.588 482.373C136.155 482.379 135.804 482.243 135.535 481.965C135.267 481.686 135.144 481.33 135.167 480.898C135.191 480.448 135.351 480.08 135.65 479.793C135.948 479.505 136.314 479.358 136.747 479.352C137.18 479.345 137.531 479.481 137.799 479.76C138.068 480.038 138.19 480.402 138.167 480.852C138.144 481.284 137.983 481.644 137.685 481.932C137.387 482.219 137.021 482.366 136.588 482.373ZM157.83 483.744L156.911 501.22L153.661 501.269L154.055 493.78L145.006 493.918L144.612 501.408L141.363 501.458L142.281 483.982L145.531 483.932L145.152 491.147L154.201 491.009L154.58 483.793L157.83 483.744ZM171.605 501.244C169.838 501.271 168.259 500.913 166.866 500.169C165.49 499.409 164.43 498.352 163.685 497C162.957 495.647 162.638 494.114 162.728 492.4C162.819 490.685 163.308 489.14 164.196 487.762C165.085 486.385 166.257 485.303 167.714 484.515C169.188 483.711 170.809 483.296 172.575 483.269C174.008 483.247 175.303 483.476 176.46 483.958C177.617 484.439 178.579 485.147 179.346 486.084L177.142 488.088C175.947 486.743 174.425 486.084 172.575 486.112C171.375 486.131 170.287 486.414 169.309 486.961C168.332 487.491 167.552 488.227 166.97 489.167C166.387 490.107 166.065 491.168 166.003 492.35C165.941 493.531 166.152 494.584 166.636 495.508C167.121 496.432 167.824 497.153 168.746 497.671C169.668 498.172 170.73 498.414 171.929 498.395C173.779 498.367 175.374 497.653 176.713 496.252L178.708 498.217C177.841 499.178 176.795 499.918 175.569 500.435C174.359 500.953 173.038 501.222 171.605 501.244ZM192.016 489.133C194.116 489.101 195.699 489.55 196.766 490.482C197.85 491.397 198.343 492.778 198.246 494.625C198.145 496.556 197.45 498.047 196.163 499.097C194.876 500.131 193.116 500.666 190.883 500.7L183.359 500.815L184.278 483.339L187.478 483.29L187.167 489.207L192.016 489.133ZM190.865 498.205C192.131 498.186 193.121 497.88 193.835 497.287C194.549 496.694 194.935 495.84 194.994 494.725C195.105 492.611 193.844 491.574 191.211 491.615L187.037 491.678L186.69 498.269L190.865 498.205ZM209.838 493.051L206.589 493.101L206.201 500.465L203.002 500.514L203.921 483.038L207.12 482.989L206.736 490.304L210.085 490.253L215.494 482.861L218.944 482.809L212.525 491.363L218.25 500.281L214.575 500.337L209.838 493.051ZM233.724 496.003L224.975 496.137L223.038 500.208L219.688 500.259L228.481 482.663L231.681 482.614L238.661 499.969L235.261 500.021L233.724 496.003ZM232.783 493.473L229.885 485.884L226.209 493.574L232.783 493.473ZM267.619 482.064L266.7 499.54L263.501 499.589L264.275 484.859L257.376 484.964L256.996 489.336C256.784 491.784 256.48 493.776 256.082 495.312C255.686 496.831 255.117 497.996 254.375 498.805C253.634 499.598 252.647 500.004 251.414 500.023C250.981 500.03 250.393 499.955 249.652 499.8L250.025 496.976C250.239 497.039 250.487 497.069 250.77 497.064C251.787 497.049 252.535 496.439 253.014 495.234C253.512 494.012 253.878 492.102 254.115 489.505L254.746 482.261L267.619 482.064ZM274.316 481.961L277.516 481.912L276.597 499.388L273.397 499.437L274.316 481.961ZM296.749 484.362L290.949 484.451L290.175 499.18L286.95 499.23L287.725 484.5L281.95 484.588L282.095 481.842L296.893 481.616L296.749 484.362ZM313.793 496.1L313.65 498.821L300.526 499.022L301.445 481.546L314.219 481.351L314.076 484.072L304.552 484.218L304.313 488.761L312.762 488.632L312.622 491.303L304.173 491.433L303.919 496.251L313.793 496.1ZM327.14 481.153C328.657 481.13 329.96 481.359 331.051 481.841C332.158 482.323 332.986 483.026 333.537 483.949C334.088 484.872 334.33 485.974 334.263 487.255C334.196 488.52 333.838 489.632 333.188 490.59C332.539 491.531 331.635 492.26 330.476 492.776C329.333 493.293 328.003 493.563 326.487 493.586L322.537 493.646L322.272 498.689L319.022 498.739L319.941 481.263L327.14 481.153ZM326.481 490.842C327.898 490.82 328.988 490.504 329.753 489.894C330.518 489.283 330.929 488.421 330.988 487.305C331.047 486.19 330.725 485.339 330.023 484.751C329.322 484.163 328.263 483.88 326.846 483.901L323.046 483.96L322.682 490.9L326.481 490.842ZM349.427 494.232L340.678 494.366L338.741 498.437L335.391 498.488L344.184 480.892L347.384 480.843L354.364 498.198L350.964 498.25L349.427 494.232ZM348.486 491.702L345.588 484.114L341.912 491.803L348.486 491.702ZM371.391 483.22L365.592 483.308L364.817 498.038L361.593 498.087L362.367 483.358L356.593 483.446L356.737 480.7L371.536 480.474L371.391 483.22ZM390.355 480.186L382.014 494.407C381.281 495.666 380.432 496.618 379.466 497.265C378.517 497.895 377.501 498.218 376.417 498.235C375.551 498.248 374.702 498.078 373.872 497.725L374.805 495.166C375.477 495.372 376.038 495.472 376.488 495.465C377.538 495.449 378.433 494.895 379.173 493.802L379.47 493.374L373.182 480.448L376.656 480.395L381.291 490.577L387.155 480.235L390.355 480.186ZM401.563 480.014C403.08 479.991 404.383 480.22 405.474 480.703C406.58 481.185 407.409 481.887 407.96 482.81C408.511 483.733 408.753 484.835 408.686 486.116C408.619 487.381 408.261 488.493 407.611 489.451C406.962 490.392 406.058 491.121 404.899 491.637C403.756 492.154 402.426 492.424 400.91 492.447L396.96 492.507L396.695 497.55L393.445 497.6L394.364 480.124L401.563 480.014ZM400.904 489.703C402.321 489.681 403.411 489.365 404.176 488.755C404.941 488.144 405.352 487.282 405.411 486.167C405.47 485.051 405.148 484.2 404.446 483.612C403.745 483.024 402.685 482.741 401.269 482.763L397.469 482.821L397.104 489.761L400.904 489.703ZM423.85 493.094L415.101 493.228L413.164 497.298L409.814 497.35L418.607 479.753L421.807 479.704L428.787 497.059L425.387 497.111L423.85 493.094ZM422.909 490.564L420.011 482.975L416.335 490.664L422.909 490.564Z" fill="white"/>
<rect width="5.1491" height="578.457" transform="matrix(-0.0543975 0.998519 -0.999891 0.014793 581.958 517.483)" fill="black"/>
<circle cx="548.689" cy="485.805" r="10" transform="rotate(87.708 548.689 485.805)" fill="white"/>
<rect width="79.7547" height="454.913" transform="matrix(-0.00104008 1 -0.999809 0.0195667 516.99 363.096)" fill="#FFC05F"/>
<path d="M115.107 403.209L115.137 420.709L111.938 420.778L111.912 406.028L102.839 406.222L102.865 420.972L99.6658 421.041L99.6353 403.541L115.107 403.209ZM129.869 420.644C128.103 420.682 126.502 420.333 125.068 419.597C123.65 418.844 122.532 417.793 121.713 416.443C120.911 415.094 120.508 413.561 120.505 411.844C120.502 410.127 120.908 408.577 121.722 407.193C122.536 405.809 123.651 404.718 125.066 403.921C126.497 403.107 128.096 402.681 129.863 402.643C131.296 402.613 132.604 402.835 133.788 403.309C134.972 403.784 135.973 404.487 136.791 405.42L134.695 407.44C133.426 406.1 131.867 405.45 130.017 405.49C128.818 405.516 127.743 405.805 126.795 406.359C125.846 406.896 125.105 407.637 124.574 408.582C124.042 409.527 123.778 410.591 123.78 411.774C123.782 412.957 124.05 414.01 124.585 414.932C125.12 415.854 125.863 416.571 126.813 417.084C127.764 417.58 128.839 417.816 130.039 417.79C131.888 417.75 133.445 417.025 134.709 415.615L136.812 417.57C135.997 418.537 134.991 419.284 133.792 419.81C132.61 420.335 131.302 420.613 129.869 420.644ZM141.578 402.642L144.777 402.574L144.799 414.999L154.175 402.372L157.199 402.308L157.23 419.808L154.031 419.876L154.009 407.476L144.633 420.078L141.608 420.142L141.578 402.642ZM165.879 402.122L170.013 407.883L174.127 401.945L177.926 401.864L172.067 410.389L178.432 419.353L174.582 419.436L170.022 413.158L165.51 419.63L161.76 419.711L168.068 410.6L162.13 402.202L165.879 402.122ZM190.404 419.347C188.621 419.385 187.012 419.036 185.578 418.3C184.144 417.548 183.017 416.497 182.198 415.148C181.379 413.782 180.968 412.249 180.966 410.549C180.963 408.849 181.368 407.307 182.182 405.923C182.996 404.522 184.119 403.423 185.551 402.625C186.982 401.811 188.59 401.385 190.373 401.347C192.156 401.309 193.764 401.666 195.199 402.419C196.633 403.155 197.76 404.197 198.578 405.546C199.397 406.895 199.808 408.428 199.811 410.145C199.814 411.862 199.409 413.412 198.595 414.796C197.78 416.18 196.658 417.28 195.226 418.094C193.794 418.891 192.187 419.309 190.404 419.347ZM190.399 416.497C191.565 416.472 192.615 416.191 193.547 415.654C194.479 415.101 195.211 414.352 195.743 413.407C196.274 412.446 196.539 411.382 196.537 410.215C196.535 409.049 196.266 408.004 195.732 407.082C195.197 406.144 194.462 405.426 193.528 404.929C192.594 404.416 191.544 404.172 190.378 404.197C189.211 404.222 188.162 404.511 187.23 405.064C186.298 405.601 185.566 406.35 185.034 407.312C184.503 408.256 184.238 409.312 184.24 410.479C184.242 411.645 184.51 412.698 185.045 413.637C185.58 414.558 186.314 415.276 187.248 415.789C188.182 416.286 189.233 416.522 190.399 416.497ZM219.596 400.971L219.627 418.471L216.428 418.539L216.402 403.789L209.503 403.937L209.361 408.315C209.282 410.767 209.086 412.763 208.772 414.303C208.458 415.827 207.951 416.996 207.253 417.811C206.555 418.609 205.589 419.022 204.356 419.048C203.923 419.057 203.331 418.987 202.581 418.836L202.801 416.006C203.017 416.068 203.267 416.096 203.551 416.09C204.567 416.068 205.283 415.453 205.697 414.244C206.128 413.018 206.391 411.104 206.487 408.502L206.724 401.247L219.596 400.971ZM234.397 418.404C232.614 418.443 231.005 418.094 229.571 417.358C228.137 416.605 227.01 415.554 226.191 414.205C225.372 412.839 224.961 411.306 224.958 409.606C224.955 407.906 225.361 406.364 226.175 404.98C226.989 403.579 228.112 402.48 229.544 401.683C230.975 400.869 232.583 400.443 234.366 400.404C236.148 400.366 237.757 400.723 239.191 401.476C240.626 402.212 241.752 403.255 242.571 404.604C243.39 405.953 243.801 407.486 243.804 409.203C243.807 410.919 243.401 412.47 242.587 413.854C241.773 415.238 240.65 416.337 239.219 417.151C237.787 417.948 236.18 418.366 234.397 418.404ZM234.392 415.554C235.558 415.529 236.608 415.249 237.54 414.712C238.472 414.159 239.204 413.41 239.736 412.465C240.267 411.503 240.532 410.439 240.53 409.273C240.528 408.106 240.259 407.062 239.724 406.14C239.19 405.201 238.455 404.484 237.521 403.987C236.587 403.474 235.537 403.229 234.37 403.254C233.204 403.279 232.155 403.569 231.223 404.122C230.29 404.659 229.558 405.408 229.027 406.369C228.495 407.314 228.231 408.369 228.233 409.536C228.235 410.703 228.503 411.755 229.038 412.694C229.573 413.616 230.307 414.334 231.241 414.847C232.175 415.344 233.226 415.579 234.392 415.554ZM261.008 402.834L252.335 403.02L252.385 417.769L249.186 417.838L249.156 400.338L261.028 400.083L261.008 402.834ZM265.526 399.987L268.725 399.918L268.756 417.418L265.556 417.487L265.526 399.987ZM288.775 399.489L288.805 416.989L285.606 417.057L285.598 412.182L281.274 412.275L280.924 412.282L277.683 417.227L274.259 417.3L277.999 411.82C276.781 411.396 275.839 410.708 275.17 409.756C274.519 408.786 274.192 407.61 274.189 406.226C274.187 404.893 274.485 403.737 275.083 402.757C275.681 401.778 276.53 401.026 277.629 400.503C278.728 399.962 280.019 399.676 281.502 399.645L288.775 399.489ZM281.606 402.392C280.273 402.421 279.249 402.751 278.534 403.383C277.835 404.015 277.487 404.922 277.489 406.106C277.491 407.256 277.834 408.14 278.518 408.759C279.202 409.361 280.194 409.648 281.494 409.62L285.593 409.532L285.58 402.307L281.606 402.392Z" fill="white"/>
<rect width="6.29822" height="449.353" transform="matrix(0.000540176 1 -0.999787 0.0206184 510.444 442.504)" fill="black"/>
<circle cx="480.851" cy="401.499" r="10" transform="rotate(86.5377 480.851 401.499)" fill="white"/>
<rect width="62.4356" height="556.161" transform="matrix(-0.0868563 0.996221 -0.999857 -0.0169236 576.644 305.601)" fill="#2A4264"/>
<path d="M130.997 335.46L130.021 341.861L127.023 341.757L127.584 338.075L114.167 337.61L113.606 341.292L110.582 341.188L111.584 334.788L112.333 334.813C113.44 334.802 114.328 334.03 114.997 332.496C115.686 330.946 116.301 328.723 116.843 325.827L117.88 320.347L130.697 320.791L128.474 335.372L130.997 335.46ZM119.647 326.222C119.221 328.46 118.753 330.324 118.241 331.813C117.732 333.286 117.12 334.333 116.406 334.955L125.275 335.262L127.085 323.399L120.239 323.162L119.647 326.222ZM148.918 336.105L148.507 338.799L135.39 338.345L138.028 321.045L150.796 321.487L150.385 324.181L140.865 323.851L140.179 328.349L148.624 328.642L148.221 331.286L139.776 330.994L139.049 335.764L148.918 336.105ZM168.793 324.843L162.996 324.643L160.773 339.224L157.549 339.112L159.773 324.531L154.002 324.331L154.416 321.613L169.208 322.125L168.793 324.843ZM184.647 337.343L184.236 340.037L171.119 339.582L173.758 322.282L186.525 322.725L186.114 325.419L176.595 325.089L175.909 329.587L184.354 329.879L183.951 332.524L175.506 332.231L174.778 337.001L184.647 337.343ZM197.164 333.155L193.916 333.043L192.804 340.333L189.606 340.223L192.245 322.923L195.443 323.034L194.338 330.275L197.686 330.391L203.813 323.323L207.261 323.443L200.012 331.614L204.847 340.751L201.174 340.623L197.164 333.155ZM223.546 326.74L217.75 326.539L215.526 341.12L212.303 341.009L214.527 326.427L208.755 326.228L209.17 323.509L223.961 324.021L223.546 326.74ZM228.536 324.18L231.734 324.29L229.861 336.573L241.128 324.616L244.152 324.721L241.513 342.02L238.315 341.91L240.185 329.651L228.921 341.584L225.898 341.48L228.536 324.18ZM261.056 333.654C262.127 333.989 262.898 334.529 263.371 335.274C263.846 336.003 264.001 336.903 263.838 337.974C263.607 339.49 262.861 340.648 261.6 341.449C260.339 342.25 258.635 342.613 256.486 342.539L248.191 342.252L250.829 324.952L258.65 325.223C260.615 325.291 262.088 325.731 263.07 326.543C264.051 327.356 264.434 328.471 264.217 329.888C264.079 330.794 263.735 331.569 263.185 332.212C262.651 332.856 261.942 333.337 261.056 333.654ZM252.9 332.452L257.248 332.603C258.297 332.639 259.128 332.461 259.741 332.068C260.353 331.675 260.721 331.075 260.844 330.268C260.967 329.46 260.785 328.841 260.298 328.41C259.814 327.963 259.047 327.721 257.998 327.685L253.65 327.534L252.9 332.452ZM256.763 340.064C259.061 340.144 260.341 339.327 260.603 337.613C260.859 335.933 259.838 335.053 257.539 334.973L252.542 334.8L251.766 339.891L256.763 340.064ZM271.219 325.658L274.418 325.769L272.544 338.052L283.812 326.094L286.835 326.199L284.197 343.499L280.999 343.388L282.868 331.13L271.604 343.063L268.581 342.958L271.219 325.658Z" fill="white"/>
<rect width="4.92984" height="549.378" transform="matrix(-0.0844027 0.996432 -0.999868 -0.0162517 563.35 367.298)" fill="black"/>
<circle cx="533.682" cy="334.912" r="8.5" transform="rotate(89.475 533.682 334.912)" fill="white"/>
<defs>
<clipPath id="clip0_219_403">
<rect width="353" height="382" fill="white" transform="translate(123.854 0.40564) rotate(0.849027)"/>
</clipPath>
</defs>
</svg>
