<svg width="722" height="626" viewBox="0 0 722 626" fill="none" xmlns="http://www.w3.org/2000/svg">
<rect x="577.707" y="0.805847" width="135" height="628.254" transform="rotate(2.87162 577.707 0.805847)" fill="#FFC05F"/>
<path d="M627.496 573.332C627.412 575.097 626.953 576.677 626.118 578.072C625.268 579.449 624.141 580.513 622.737 581.263C621.333 581.997 619.774 582.323 618.06 582.241C616.345 582.159 614.824 581.677 613.498 580.796C612.172 579.915 611.16 578.749 610.462 577.297C609.748 575.828 609.434 574.211 609.518 572.446C609.587 571.014 609.899 569.72 610.455 568.562C611.011 567.403 611.783 566.439 612.771 565.669L614.643 567.861C613.218 569.061 612.461 570.585 612.372 572.433C612.315 573.631 612.53 574.718 613.017 575.692C613.488 576.666 614.176 577.441 615.083 578.019C615.99 578.596 617.034 578.913 618.216 578.97C619.398 579.026 620.468 578.81 621.426 578.322C622.384 577.834 623.152 577.129 623.73 576.205C624.291 575.281 624.601 574.22 624.658 573.021C624.747 571.173 624.13 569.583 622.809 568.252L624.907 566.25C625.817 567.111 626.493 568.153 626.935 569.376C627.378 570.582 627.565 571.9 627.496 573.332ZM611.028 546.137L624.774 554.404C625.99 555.129 626.893 555.974 627.481 556.936C628.053 557.881 628.313 558.895 628.261 559.977C628.22 560.843 627.995 561.691 627.589 562.523L625.08 561.602C625.329 560.929 625.464 560.369 625.486 559.919C625.536 558.87 625.036 557.979 623.987 557.244L623.576 556.949L610.207 563.292L610.373 559.821L620.884 555.144L610.875 549.333L611.028 546.137ZM611.891 528.131L629.37 528.968L629.216 532.189L622.624 531.874C623.161 533.551 623.394 535.131 623.323 536.613C623.216 538.843 622.601 540.541 621.477 541.705C620.338 542.852 618.761 543.377 616.746 543.281L611.178 543.014L611.332 539.793L616.551 540.043C617.783 540.102 618.741 539.789 619.424 539.104C620.108 538.419 620.481 537.411 620.545 536.079C620.618 534.564 620.378 533.118 619.827 531.74L611.736 531.352L611.891 528.131ZM626.198 510.541L625.78 519.281L629.743 521.197L629.582 524.544L612.479 515.841L612.632 512.644L630.49 505.59L630.327 508.986L626.198 510.541ZM623.6 511.492L615.801 514.423L623.285 518.06L623.6 511.492ZM631.325 493.377C631.241 495.141 630.781 496.721 629.947 498.116C629.097 499.494 627.969 500.558 626.565 501.308C625.162 502.042 623.603 502.368 621.888 502.286C620.173 502.204 618.653 501.722 617.327 500.841C616.001 499.96 614.989 498.793 614.291 497.342C613.577 495.872 613.262 494.256 613.347 492.491C613.415 491.059 613.728 489.764 614.284 488.606C614.84 487.448 615.612 486.484 616.6 485.714L618.472 487.906C617.046 489.106 616.289 490.629 616.201 492.477C616.143 493.676 616.358 494.763 616.846 495.737C617.316 496.711 618.005 497.486 618.912 498.063C619.818 498.641 620.863 498.958 622.045 499.014C623.227 499.071 624.297 498.855 625.254 498.367C626.212 497.879 626.98 497.173 627.558 496.25C628.12 495.326 628.429 494.264 628.487 493.066C628.575 491.218 627.959 489.628 626.638 488.297L628.736 486.295C629.646 487.156 630.322 488.198 630.764 489.42C631.206 490.626 631.394 491.945 631.325 493.377ZM614.9 465.291L632.38 466.128L632.224 469.375L624.733 469.016L624.3 478.056L631.791 478.414L631.636 481.661L614.156 480.824L614.311 477.577L621.528 477.923L621.961 468.883L614.744 468.538L614.9 465.291ZM630.604 446.237L633.326 446.367L632.698 459.477L615.218 458.64L615.829 445.88L618.551 446.01L618.095 455.524L622.64 455.742L623.044 447.301L625.716 447.429L625.312 455.87L630.132 456.1L630.604 446.237ZM634.766 416.294L623.178 415.764L632.492 421.967L632.422 423.415L622.708 428.707L634.145 429.254L633.998 432.326L616.518 431.489L616.646 428.817L628.539 422.454L617.305 415.058L617.432 412.411L634.914 413.198L634.766 416.294ZM617.753 405.696L617.906 402.5L630.317 403.094L618.356 393.111L618.501 390.089L635.98 390.926L635.827 394.122L623.442 393.529L635.378 403.512L635.233 406.533L617.753 405.696ZM636.934 376.248C636.849 378.013 636.39 379.593 635.555 380.988C634.705 382.365 633.578 383.429 632.174 384.18C630.77 384.913 629.211 385.239 627.497 385.157C625.782 385.075 624.262 384.593 622.936 383.712C621.61 382.831 620.598 381.665 619.899 380.213C619.186 378.744 618.871 377.127 618.955 375.362C619.024 373.931 619.336 372.636 619.892 371.478C620.448 370.32 621.22 369.356 622.208 368.585L624.081 370.777C622.655 371.977 621.898 373.501 621.809 375.349C621.752 376.547 621.967 377.634 622.454 378.608C622.925 379.582 623.613 380.358 624.52 380.935C625.427 381.512 626.471 381.829 627.653 381.886C628.835 381.942 629.905 381.727 630.863 381.239C631.821 380.751 632.589 380.045 633.167 379.121C633.728 378.197 634.038 377.136 634.095 375.937C634.184 374.089 633.567 372.5 632.246 371.168L634.344 369.166C635.254 370.028 635.93 371.069 636.372 372.292C636.815 373.498 637.002 374.817 636.934 376.248ZM623.109 351.336L622.832 357.13L637.565 357.835L637.411 361.056L622.678 360.351L622.401 366.119L619.655 365.988L620.362 351.205L623.109 351.336ZM635.966 334.254L638.688 334.384L638.06 347.494L620.58 346.657L621.191 333.897L623.913 334.027L623.458 343.541L628.002 343.759L628.407 335.318L631.078 335.446L630.674 343.887L635.494 344.117L635.966 334.254ZM637.053 311.031L643.645 311.347L643.502 314.343L639.656 314.159L638.946 328.992L621.466 328.155L621.619 324.959L636.352 325.664L636.774 316.849L622.041 316.144L622.196 312.923L636.929 313.628L637.053 311.031ZM625.866 293.76L625.589 299.553L640.322 300.259L640.168 303.48L625.435 302.774L625.158 308.543L622.412 308.411L623.119 293.628L625.866 293.76ZM632.279 277.97C632.632 276.869 633.189 276.045 633.949 275.497C634.693 274.949 635.606 274.701 636.688 274.753C638.219 274.826 639.383 275.449 640.177 276.622C640.972 277.794 641.318 279.454 641.215 281.602L640.818 289.892L623.338 289.055L623.713 281.239C623.807 279.275 624.271 277.762 625.106 276.701C625.941 275.64 627.075 275.143 628.506 275.212C629.422 275.256 630.202 275.518 630.846 276C631.492 276.464 631.969 277.121 632.279 277.97ZM630.958 286.217L631.166 281.872C631.216 280.823 631.046 280.014 630.656 279.444C630.267 278.875 629.664 278.571 628.848 278.532C628.032 278.493 627.403 278.738 626.961 279.268C626.502 279.796 626.247 280.585 626.197 281.634L625.989 285.979L630.958 286.217ZM638.713 281.582C638.823 279.285 638.013 278.095 636.281 278.012C634.583 277.931 633.679 279.039 633.569 281.336L633.33 286.33L638.474 286.577L638.713 281.582ZM642.43 261.46C642.345 263.241 641.885 264.829 641.051 266.224C640.2 267.618 639.072 268.691 637.668 269.441C636.247 270.191 634.688 270.525 632.99 270.443C631.292 270.362 629.78 269.881 628.454 269C627.111 268.118 626.091 266.943 625.394 265.474C624.68 264.005 624.365 262.38 624.451 260.599C624.536 258.817 625.004 257.23 625.855 255.835C626.69 254.44 627.809 253.368 629.213 252.617C630.617 251.867 632.177 251.533 633.891 251.615C635.606 251.697 637.126 252.179 638.452 253.06C639.778 253.941 640.798 255.116 641.512 256.585C642.209 258.054 642.515 259.678 642.43 261.46ZM639.583 261.323C639.639 260.158 639.431 259.097 638.96 258.14C638.472 257.182 637.774 256.415 636.868 255.837C635.944 255.259 634.9 254.942 633.735 254.886C632.569 254.83 631.508 255.047 630.55 255.535C629.576 256.022 628.808 256.719 628.247 257.627C627.67 258.534 627.353 259.57 627.297 260.735C627.242 261.9 627.458 262.962 627.946 263.92C628.417 264.877 629.115 265.644 630.038 266.222C630.945 266.8 631.981 267.116 633.146 267.172C634.312 267.228 635.382 267.012 636.356 266.525C637.314 266.037 638.081 265.339 638.659 264.433C639.219 263.525 639.528 262.489 639.583 261.323Z" fill="white"/>
<rect x="711.29" y="16.4462" width="10.6613" height="620.563" transform="rotate(2.79774 711.29 16.4462)" fill="black"/>
<ellipse cx="640.015" cy="57.5" rx="18.0147" ry="17.5" fill="white"/>
<rect x="409.884" y="64.2627" width="135" height="628.254" transform="rotate(10.8015 409.884 64.2627)" fill="#2A4264"/>
<path d="M374.655 573.052L373.376 578.709L387.762 581.963L387.051 585.108L372.664 581.855L371.39 587.487L368.708 586.881L371.973 572.445L374.655 573.052ZM374.566 560.982C374.9 559.503 375.434 558.273 376.168 557.295C376.906 556.299 377.796 555.612 378.839 555.233C379.882 554.854 381.029 554.805 382.281 555.089C383.516 555.368 384.531 555.905 385.325 556.7C386.103 557.491 386.611 558.494 386.849 559.71C387.09 560.91 387.043 562.249 386.709 563.728L385.837 567.581L390.763 568.695L390.046 571.865L372.977 568.004L374.566 560.982ZM383.993 563.268C384.306 561.886 384.251 560.771 383.827 559.924C383.404 559.076 382.647 558.529 381.558 558.283C380.469 558.037 379.551 558.205 378.804 558.788C378.057 559.371 377.527 560.353 377.215 561.735L376.376 565.441L383.155 566.974L383.993 563.268ZM377.279 548.985L377.985 545.864L390.104 548.605L380.058 536.696L380.726 533.745L397.795 537.606L397.089 540.727L384.994 537.991L395.015 549.895L394.348 552.846L377.279 548.985ZM385.454 512.837L402.523 516.698L401.817 519.819L387.431 516.565L385.909 523.295L390.143 524.407C392.514 525.028 394.412 525.663 395.838 526.31C397.248 526.953 398.265 527.705 398.891 528.564C399.501 529.42 399.669 530.449 399.397 531.652C399.302 532.074 399.09 532.633 398.762 533.328L396.056 532.485C396.169 532.289 396.257 532.052 396.319 531.776C396.543 530.784 396.116 529.953 395.038 529.282C393.947 528.591 392.144 527.91 389.63 527.238L382.614 525.395L385.454 512.837ZM404.233 496.786L406.891 497.388L403.995 510.189L386.926 506.329L389.744 493.869L392.402 494.47L390.301 503.76L394.739 504.764L396.603 496.522L399.212 497.112L397.348 505.354L402.054 506.418L404.233 496.786ZM392.595 481.264C392.93 479.785 393.464 478.555 394.198 477.577C394.936 476.581 395.826 475.894 396.869 475.515C397.911 475.136 399.059 475.087 400.31 475.371C401.546 475.65 402.561 476.187 403.355 476.982C404.133 477.773 404.641 478.776 404.878 479.992C405.12 481.192 405.073 482.531 404.739 484.01L403.867 487.863L408.793 488.977L408.076 492.147L391.007 488.286L392.595 481.264ZM402.023 483.55C402.336 482.168 402.28 481.053 401.857 480.206C401.433 479.358 400.677 478.811 399.588 478.565C398.499 478.319 397.581 478.487 396.834 479.07C396.087 479.653 395.557 480.635 395.244 482.017L394.406 485.723L401.185 487.256L402.023 483.55ZM395.309 469.267L396.014 466.146L408.133 468.887L398.088 456.978L398.755 454.027L415.824 457.888L415.118 461.009L403.024 458.273L413.045 470.177L412.377 473.128L395.309 469.267Z" fill="white"/>
<rect x="540.032" y="98.1828" width="10.6613" height="620.563" transform="rotate(10.7276 540.032 98.1828)" fill="black"/>
<ellipse cx="463.775" cy="129.011" rx="18.0147" ry="17.5" transform="rotate(7.92989 463.775 129.011)" fill="white"/>
<rect x="234.148" y="130.65" width="135" height="628.254" transform="rotate(21.6122 234.148 130.65)" fill="#FF7C2A"/>
<path d="M126.375 580.478L125.076 583.457L131.837 586.404L130.558 589.338L114.516 582.344L115.795 579.411L122.51 582.338L123.849 579.267L119.142 571.734L120.521 568.571L125.902 577.435L136.652 575.358L135.184 578.727L126.375 580.478ZM128.332 550.654L144.374 557.647L143.095 560.58L129.574 554.686L126.816 561.011L130.767 562.897C132.98 563.952 134.725 564.932 136.004 565.835C137.268 566.731 138.127 567.66 138.58 568.621C139.019 569.576 138.991 570.619 138.499 571.749C138.325 572.146 138.013 572.655 137.56 573.276L135.06 571.941C135.208 571.769 135.339 571.553 135.452 571.294C135.858 570.362 135.594 569.465 134.661 568.603C133.719 567.72 132.076 566.713 129.733 565.582L123.187 562.456L128.332 550.654ZM147.964 539.278L144.467 547.299L147.49 550.499L146.151 553.57L133.256 539.357L134.535 536.424L153.734 536.176L152.375 539.292L147.964 539.278ZM145.196 539.244L136.865 539.212L142.569 545.272L145.196 539.244ZM158.855 525.056C158.149 526.675 157.158 527.989 155.882 528.996C154.598 529.982 153.166 530.576 151.587 530.778C150.015 530.966 148.442 530.716 146.868 530.03C145.294 529.344 144.044 528.354 143.118 527.059C142.191 525.764 141.66 524.314 141.523 522.709C141.378 521.082 141.658 519.459 142.364 517.84C142.937 516.526 143.689 515.426 144.62 514.541C145.552 513.657 146.616 513.03 147.813 512.661L148.784 515.375C147.025 515.99 145.776 517.145 145.037 518.841C144.557 519.941 144.372 521.033 144.481 522.117C144.575 523.194 144.944 524.164 145.586 525.026C146.228 525.888 147.092 526.555 148.177 527.028C149.261 527.501 150.338 527.679 151.407 527.564C152.476 527.448 153.444 527.061 154.313 526.403C155.166 525.739 155.832 524.857 156.312 523.757C157.051 522.061 157.04 520.356 156.278 518.642L158.951 517.516C159.495 518.644 159.757 519.858 159.736 521.158C159.721 522.443 159.427 523.742 158.855 525.056ZM147.276 507.198L148.555 504.265L159.945 509.23L152.311 495.648L153.52 492.875L169.562 499.869L168.283 502.802L156.917 497.847L164.527 511.419L163.318 514.192L147.276 507.198ZM168.039 484.907L166.741 487.886L173.501 490.833L172.222 493.767L156.18 486.773L157.459 483.84L164.174 486.767L165.513 483.696L160.806 476.163L162.185 473L167.566 481.864L178.317 479.787L176.848 483.156L168.039 484.907ZM180.704 464.178L177.207 472.199L180.23 475.398L178.891 478.469L165.997 464.257L167.275 461.323L186.474 461.075L185.116 464.192L180.704 464.178ZM177.937 464.144L169.605 464.112L175.309 470.171L177.937 464.144Z" fill="white"/>
<rect x="355.623" y="188.379" width="10.6613" height="620.563" transform="rotate(21.5383 355.623 188.379)" fill="black"/>
<ellipse cx="274.937" cy="204.357" rx="18.0147" ry="17.5" transform="rotate(18.7406 274.937 204.357)" fill="white"/>
</svg>
