<svg width="709" height="502" viewBox="0 0 709 502" fill="none" xmlns="http://www.w3.org/2000/svg">
<path fill-rule="evenodd" clip-rule="evenodd" d="M440.416 247.537C443.289 253.614 446.324 259.53 449.389 265.497C451.012 268.656 456.244 281.72 457.596 282.219C459.051 282.757 467.966 277.085 470.525 275.974C475.071 273.999 479.392 272.129 484.141 270.912C489.458 269.548 494.819 268.544 500.335 269.05C502.75 269.273 506.75 269.905 504.348 266.232C502.598 263.555 500.902 261.089 498.525 259.155C496.795 257.746 494.258 255.163 492.232 254.223C490.107 253.236 486.972 253.454 484.688 253.513C482.218 253.576 470.447 257.55 469.8 253.408C468.599 254.59 467.9 254.133 466.524 254.71C464.974 255.361 464.007 256.623 462.467 257.386C461.468 257.881 459.627 259.838 458.516 259.85C457.04 259.866 456.642 258.543 455.582 257.567C453.208 255.379 450.045 253.939 447.468 252.038C445.199 250.364 443.038 248.618 440.416 247.537ZM466.276 199.498C466.477 202.272 465.785 204.85 465.802 207.705C465.81 208.951 465.861 210.196 465.512 211.396C465.198 212.472 465.417 214.404 465.251 215.531C468.188 214.564 473.645 213.129 476.644 214.434C479.512 215.681 479.872 221.448 479.973 224.253C480.042 226.165 479.257 229.111 479.852 230.941C480.13 231.795 480.132 232.071 480.114 232.147L480.112 232.156C480.169 232.124 480.399 232.125 481.211 232.758C482.016 233.386 482.976 233.732 483.772 234.426C485.218 235.689 485.466 237.119 486.18 238.949C486.874 240.727 488.721 242.306 490.783 242.242C489.125 238.991 486.824 235.956 488.145 232.138C489.141 229.257 487.394 225.875 486.021 223.138C485.566 222.232 480.523 215.287 482.758 214.798C484.208 214.479 487.539 221.851 488.176 223.138C489.953 221.839 490.751 220.236 489.384 218.278C488.333 216.775 487.043 215.489 486.021 213.932C484.36 211.406 482.742 208.39 480.771 206.145C477.307 202.204 471.262 199.522 466.276 199.498ZM480.112 232.156C480.093 232.17 480.101 232.184 480.11 232.163L480.112 232.156ZM419.735 195.192C417.522 197.485 414.723 199.388 412.585 201.795C410.713 203.902 408.192 207.447 407.303 210.262C411.865 211.213 419.447 214.127 421.264 219.308C428.361 212.26 431.106 225.146 432.514 230.534C436.667 228.59 435.839 222.117 435.784 218.337C435.741 215.339 434.053 211.791 438.077 211.545C441.084 211.362 444.004 212.687 446.716 213.927C450.1 215.475 453.649 217.791 456.382 220.451L459.23 218.052C454.559 215.215 452.124 209.789 449.389 204.821C448.517 203.238 447.352 201.477 446.716 199.765C446.275 198.581 445.966 196.191 445.484 195.139C444.725 193.484 437.313 193.028 435.35 192.602C430.166 191.476 423.971 190.801 419.735 195.192Z" fill="#BE7445"/>
<path fill-rule="evenodd" clip-rule="evenodd" d="M420.916 231.966C419.002 231.86 417.096 232.323 415.181 232.121L420.168 227.422C420.902 228.817 420.955 230.405 420.916 231.966ZM466.341 199.764C471.296 199.788 477.341 202.481 480.784 206.414C482.608 208.499 484.115 211.298 485.658 213.64C486.692 215.211 487.703 216.728 488.958 218.108C490.79 220.121 490.266 220.581 488.202 222.096C487.549 220.772 484.087 213.693 482.635 214.012C480.43 214.496 484.689 221.973 485.154 222.905C486.532 225.661 488.756 229.51 487.757 232.417C486.438 236.254 488.35 238.441 490.011 241.71C488.267 241.765 488.096 241.029 487.494 239.42C486.723 237.352 485.88 235.624 484.248 234.194C482.984 233.087 480.916 232.621 480.323 231.284C479.588 229.631 480.049 226.368 479.99 224.53C479.899 221.736 479.893 215.132 477.047 213.892C474.066 212.591 468.707 213.817 465.793 214.78C466.157 212.318 467.304 210.71 467.288 207.975C467.271 205.111 466.543 202.556 466.341 199.764ZM504.412 245.449C501.819 244.561 499.362 243.625 496.695 243.02C493.904 242.387 493.717 241.662 492.144 239.073C490.951 237.11 489.504 235.58 489.842 233.176C490.059 231.633 490.839 230.882 490.604 229.148C490.459 228.073 489.995 226.9 489.661 225.878C489.25 224.624 488.398 223.202 490.378 223.14C491.471 223.105 491.524 223.729 492.264 224.777C493.629 226.712 495.201 228.469 496.653 230.325C499.176 233.547 501.852 236.976 504.669 239.958C507.769 243.24 510.445 247.198 512.45 251.4C512.82 252.175 515.07 256.745 514.11 257.641C513.229 258.465 508.324 256.545 507.43 256.321C503.57 255.351 499.189 255.005 495.543 253.245C493.685 252.347 489.585 251.277 488.117 249.889C486.753 248.598 486.814 245.473 487.606 243.654C489.822 245.145 505.84 250.772 504.412 245.449ZM456.187 219.802C453.6 217.274 450.543 215.247 447.349 213.744C444.492 212.4 440.943 210.902 437.765 211.135C433.805 211.426 435.459 214.877 435.474 217.815C435.493 221.715 437.072 227.332 432.768 229.355C431.363 223.956 428.402 211.188 421.309 218.263C419.496 213.072 413.03 211.315 408.477 210.361C409.302 207.738 411.809 205.364 413.546 203.395C415.72 200.932 417.436 198.046 419.613 195.63C423.915 190.858 431.707 192.39 437.153 193.58C438.971 193.977 444.241 194.475 445.121 195.919C445.674 196.825 445.365 199.038 445.775 200.146C446.339 201.672 447.302 203.086 448.076 204.496C450.896 209.639 453.766 214.815 458.594 217.76L456.187 219.802ZM440.4 247.51C442.955 248.57 444.833 250.343 447.098 251.836C449.845 253.646 453.066 255.342 455.531 257.577C456.433 258.395 456.94 259.808 458.185 259.9C459.268 259.979 460.918 258.618 461.878 258.143C463.489 257.343 465.027 256.131 466.646 255.418C467.975 254.831 468.564 254.952 469.715 253.812C470.361 257.969 482.104 254.084 484.568 254.02C486.847 253.961 489.974 254.254 492.095 255.245C494.116 256.189 495.696 258.268 497.426 259.683C499.798 261.625 502.061 263.589 503.807 266.277C506.202 269.963 502.589 268.919 500.178 268.697C494.677 268.188 489.326 269.606 484.022 270.974C479.282 272.196 474.6 273.663 470.062 275.646C467.51 276.761 464.824 277.786 462.424 279.236C461.159 280 459.106 281.871 457.654 281.332C456.323 280.838 454.996 276.708 454.189 275.059C452.621 271.856 450.971 268.709 449.353 265.538C446.295 259.549 443.267 253.61 440.401 247.51H440.4ZM471.829 326.775C470.255 325.797 467.689 326.06 465.949 325.65C463.982 325.187 462.005 324.433 460.129 323.646C458.23 322.85 456.436 322.035 454.7 321.039C453.907 320.583 452.849 320.135 452.115 319.502C451.524 318.993 451.309 318.046 450.764 317.584C449.342 316.377 448.924 317.134 448.734 314.807C448.527 312.279 449.838 310.848 451.469 308.956C452.93 307.263 454.828 305.8 456.664 304.609C457.476 304.083 458.343 303.489 459.172 302.987C460.425 302.226 462.105 300.96 462.763 302.594C461.393 302.972 461.091 304.866 462.327 305.546C463.007 305.919 464.035 305.371 464.8 305.768C465.982 306.381 467.119 308.092 468.131 309.013C471.452 312.038 474.629 313.173 478.976 313.416C488.059 313.922 497.571 312.801 506.479 311.345C508.772 310.97 511.061 311.376 513.375 311.286C515.627 311.199 517.975 310.667 520.188 310.255C524.451 309.463 528.945 308.811 533.142 307.645C538.218 306.235 543.311 304.411 548.077 302.049C552.648 299.783 557.815 296.038 562.949 295.75C560.758 298.071 557.475 298.965 554.839 300.494C552.686 301.742 549.317 302.544 547.956 304.602C547.07 305.942 546.626 308.402 545.956 309.973C545.216 311.711 544.534 313.477 543.848 315.241C543.16 317.016 542.443 318.791 541.884 320.619C541.538 321.754 541.389 324.105 540.572 324.881C539.268 326.118 534.905 326.668 533.148 327.079C529.867 327.848 526.125 327.746 522.779 327.799C521.397 327.821 520.003 328.025 518.682 328.053C516.826 328.091 517.003 327.743 517.03 326.001C517.045 324.955 517.025 323.051 515.732 323.913C514.85 324.5 515.456 327.102 515.62 328.026C508.234 328.822 500.528 329.222 493.177 328.956C485.948 328.694 478.969 327.686 471.829 326.775ZM438.475 308.432C437.171 298.307 435.583 288.013 433.806 278.02C432.009 267.921 429.849 257.914 427.42 247.853L432.234 246.608C432.294 248.728 432.956 250.569 433.239 252.679C433.629 255.592 434.374 258.42 434.82 261.323C435.668 266.841 437.239 272.24 438.622 277.622C440.032 283.107 440.504 288.759 441.799 294.273C442.867 298.815 443.413 303.818 444.009 308.488C445.456 319.817 447.518 331.167 449.086 342.502C450.558 353.128 450.705 363.97 450.62 374.696C450.568 381.244 449.645 387.774 449.693 394.331C449.705 395.952 449.579 397.567 449.501 399.186C449.446 400.328 450.013 403.493 449.533 404.449C449.228 405.055 447.921 405.613 447.458 406.454C446.726 407.784 446.572 409.375 445.396 410.381C444.443 406.222 444.893 400.732 445.101 396.487C445.303 392.398 444.911 388.171 444.834 384.018C444.684 375.871 444.285 367.845 443.899 359.694C443.475 350.756 442.272 341.601 441.097 332.73C440.028 324.664 439.314 316.455 438.475 308.432ZM473.356 181.458L474.907 181.302C474.829 182.481 475.059 184.388 474.292 185.003C473.71 185.469 472.532 185.316 471.827 185.465C469.516 185.954 466.838 186.362 464.543 185.472C463.652 185.126 464.224 184.584 462.997 184.809C461.518 185.081 462.058 185.334 461.631 186.332C461.302 187.102 461.133 188.413 460.759 189.338C460.26 190.576 459.247 192.79 459.68 194.219C460.101 195.608 461.67 196.028 462.338 197.601C462.835 198.771 462.717 200.471 462.975 201.759C463.319 203.477 463.754 205.188 463.946 206.938C464.188 209.143 464.105 211.729 461.581 212.071C459.237 212.389 457.562 211.574 455.991 209.728C452.99 206.204 449.564 201.229 447.801 196.795C447.595 196.278 447.089 195.413 447.159 194.859C447.299 193.762 447.36 194.872 447.681 194.11C447.988 193.382 448.469 192.721 448.752 191.913C449.771 189.001 450.491 185.976 450.9 182.894C451.085 181.501 451.147 180.126 451.115 178.72C451.105 178.24 450.838 176.799 450.997 176.47C451.159 176.137 452.003 175.984 452.266 175.653C452.754 175.041 453.592 173.311 454.133 172.852C454.798 172.288 456.285 172.735 456.555 171.614C456.987 169.82 446.763 166.898 451.539 164.505C455.106 162.717 460.576 171.752 461.823 164.643C462.039 163.411 461.627 161.74 462.127 160.611C462.678 159.364 464.18 158.898 465.229 158.291C466.568 157.517 467.921 156.722 469.222 155.874C470.114 155.293 471.4 153.751 472.35 153.609C471.976 155.703 472.693 157.779 472.705 159.868C470.647 159.266 469.231 159.253 467.2 160.324C466.233 160.834 462.589 163.727 464.435 165.119C465.931 164.162 467.531 163.333 469.198 162.77C469.856 162.548 470.677 162.246 471.377 162.231C473 162.195 472.772 162.379 473.381 163.704C473.969 164.98 473.843 168.307 475.133 169.122C476.467 169.965 475.438 168.785 476.577 169.057C477.227 169.213 477.935 169.736 478.53 170.031C477.715 170.988 476.07 171.862 475.529 172.925C474.741 174.475 475.014 177.68 474.891 179.375C473.859 178.976 472.772 178.959 471.726 178.663C470.743 178.383 469.379 177.174 469.276 178.952C469.162 180.933 472.056 181.459 473.356 181.459L473.356 181.458ZM459.923 233.62C459.842 231.908 459.754 230.196 459.578 228.491C459.459 227.347 458.455 224.026 459.023 223.021C459.64 221.927 461.71 221.857 462.706 221.595C464.616 221.091 466.447 220.679 468.388 220.346C470.173 220.041 471.855 219.975 473.653 219.887C475.612 219.791 476.098 219.229 476.531 221.564C476.871 223.4 477.327 225.313 477.391 227.194C477.45 228.958 476.958 230.49 478.574 231.68C475.025 231.68 470.402 228.26 467.163 231.318C462.529 235.69 470.593 236.95 472.719 237.915C470.951 238.844 468.327 239.574 467.495 241.697C466.561 244.076 467.917 245.088 469.99 245.279C469.795 246.196 469.048 246.791 468.826 247.894C468.5 249.511 469.557 248.976 468.209 250.227C466.434 251.873 462.781 252.974 460.604 254.023C460.095 254.269 459.579 254.501 459.058 254.717C458.242 255.502 457.64 255.353 457.251 254.268C456.135 253.503 455.141 251.798 454.151 250.806C451.947 248.597 449.515 246.66 446.897 245.065C447.983 244.579 449.281 245.678 450.322 245.143C451.164 244.711 450.847 243.924 451.351 243.335C451.149 242.567 451.362 242.286 451.991 242.492C452.293 242.531 452.599 242.471 452.869 242.32C453.396 241.613 453.632 241.382 453.667 240.292C453.704 239.135 453.085 238.726 452.847 237.8C452.074 237.23 452.092 236.67 452.9 236.121C453.229 235.545 453.416 234.886 453.443 234.209C453.596 231.657 451.443 230.628 449.801 229.278C452.742 228.929 452.629 225.197 450.595 223.567C448.486 221.875 444.021 222.568 441.471 222.949C440.941 223.028 439.509 223.768 438.972 223.296C438.644 223.007 438.876 220.562 438.861 220.131C438.826 219.151 438.606 217.983 438.75 217.009C439.052 214.968 438.413 215.996 439.77 215.939C443.001 215.804 447.116 218.855 449.959 220.294C453.141 221.905 455.186 222.152 455.219 226.146C455.251 229.926 456.231 233.694 456.658 237.414C456.845 239.04 456.979 247.482 459.728 244.366C460.793 243.158 460.11 241.3 460.031 239.809C459.924 237.759 459.988 235.676 459.923 233.62ZM637.677 360.188C636.105 360.49 633.542 359.513 631.826 359.411C628.826 359.232 625.735 358.923 622.796 358.247C620.496 357.719 617.875 357.253 616.635 354.845C615.526 352.692 615.134 349.997 614.537 347.648C614.22 346.401 613.402 344.592 613.402 343.302C613.402 341.624 613.611 341.954 615.228 341.036C617.275 339.875 619.266 338.255 621.473 337.596C622.141 337.455 622.809 337.317 623.478 337.181C624.343 336.638 624.831 336.905 624.945 337.981C625.789 338.944 626.284 340.72 626.992 341.846C628.607 344.415 630.526 346.165 633.031 347.646C637.54 350.31 641.741 352.367 646.571 354.109C649.232 355.069 651.686 356.416 654.288 357.475C656.372 358.323 659.248 358.58 660.849 360.468C662.655 362.597 659.879 363.372 658.336 364.812C657.071 365.992 657.046 366.262 655.317 365.689C654.028 365.263 652.886 364.447 651.648 363.894C647.41 361.999 642.279 360.739 637.677 360.188ZM540.805 393.966C542.385 393.596 543.965 393.227 545.545 392.858C543.991 395.996 540.724 400.587 543.069 404.218C543.946 405.575 545.403 405.962 546.706 406.651C548.282 407.484 549.737 408.551 551.227 409.544C557.372 413.637 563.617 417.788 570.092 421.301C568.065 422.009 564.948 422.498 562.861 421.882C560.43 421.163 558.179 419.514 555.683 418.793C551.206 417.5 546.493 416.399 541.944 415.736C538.226 415.194 528.919 416.419 529.371 410.369C529.801 404.625 532.972 399.145 533.915 393.467C536.231 394.023 538.44 393.926 540.805 393.966ZM446.644 302.032C444.843 292.471 443.767 282.747 441.644 273.254C440.584 268.519 439.838 263.718 438.803 258.981C438.321 256.777 437.957 254.552 437.488 252.353C437.013 250.126 435.99 248.071 435.757 245.768C437.477 246.229 437.876 250.493 438.397 252.097C439.354 255.04 440.397 257.867 441.627 260.685C443.581 265.163 445.655 269.483 447.86 273.825C450.184 278.405 452.64 282.809 455.544 286.99C456.498 288.365 457.793 289.441 458.408 290.949C459.375 293.32 459.781 296.146 460.705 298.613C460.055 298.971 458.374 299.06 457.576 299.23C456.092 299.547 455.053 299.829 453.627 300.592C451.116 301.937 449.007 303.531 447.329 305.951C446.908 304.709 446.797 303.347 446.644 302.032ZM516.632 374.984C516.662 365.775 516.783 356.488 516.643 347.348C516.605 344.81 516.413 342.072 516.073 339.553C515.86 337.97 514.603 334.605 515.429 333.846C516.135 333.198 519.862 333.625 520.777 333.602C522.551 333.557 524.32 333.472 526.097 333.327C526.097 336.74 524.865 340.615 524.292 343.991C523.759 347.14 523.32 350.307 522.879 353.47C521.926 360.321 521.654 367.266 520.619 374.135C519.681 380.363 518.444 386.564 517.761 392.792C517.387 396.21 516.629 399.435 516.04 402.851C515.733 404.632 514.612 411.97 513.2 412.691C512.901 410.059 514.121 406.881 514.339 404.219C514.564 401.472 514.739 398.705 515.151 395.943C515.634 392.7 515.879 389.378 516.064 386.095C516.177 384.086 516.212 382.083 516.372 380.076C516.488 378.619 516.998 376.412 516.632 374.984ZM472.277 251.849C472.219 250.846 474.618 250.886 475.064 249.734C475.97 247.393 473.905 247.815 472.635 247.572C473.087 246.271 481.567 246.745 479.591 243.231C478.221 240.793 473.024 244.525 471.635 242.208C470.722 240.687 473.207 240.477 474.192 240.325C475.674 240.095 479.167 240.838 479.053 238.756C478.908 236.141 472.117 234.336 470.213 233.568C470.424 231.777 478.596 234.322 479.779 235.048C482.456 236.691 484.507 239.64 484.9 242.916C485.357 246.728 483.57 249.731 480.051 250.666C478.583 251.056 477.499 251.099 476.141 251.686C475.248 252.072 472.356 253.033 471.744 252.061L472.277 251.849ZM424.301 228.136C424.165 226.508 422.898 223.444 424.358 222.374C426.4 220.877 427.246 223.344 427.709 224.826C428.275 226.635 430.654 231.064 428.574 232.191C428.09 232.453 425.797 232.148 425.392 231.975C424.265 232.293 423.902 231.836 424.3 230.604L424.301 228.136ZM474.142 359.607C474.27 355.158 472.429 349.808 471.386 345.45C470.203 340.512 469.58 335.477 468.327 330.593C469.72 330.775 471.127 330.923 472.505 331.225C474.384 331.639 474.418 331.574 474.283 333.568C474.081 336.563 474.345 339.5 474.488 342.494C474.774 348.489 474.077 354.582 474.541 360.539C474.127 360.653 473.995 360.342 474.142 359.607ZM422.111 242.994C417.596 243.742 413.268 245.29 409.16 247.371C406.895 248.518 404.401 249.751 401.87 250.209C399.058 250.718 396.076 250.479 393.205 250.675C392.192 250.744 389.531 251.277 388.544 250.633C387.567 249.994 387.643 248.913 387.597 247.624C387.479 244.308 388.866 241.061 390.113 238.086C391.184 235.533 391.993 233.584 393.653 231.389C395.786 228.569 397.643 225.526 399.64 222.582C401.145 220.363 402.667 218.177 404.202 215.961C405.299 214.374 405.247 213.828 406.902 214.006C408.532 214.181 410.172 215.223 411.707 215.775C413.985 216.595 416.744 217.045 418.821 218.356C420.164 219.203 420.224 219.359 420.209 220.838C420.193 222.216 419.783 223.896 419.022 224.974C417.439 227.211 414.816 228.396 412.565 229.512C411.263 230.157 410.138 231.073 408.978 231.964C407.729 232.924 405.209 233.489 404.253 234.583C401.471 237.77 406.536 237.14 407.951 237.044C411.006 236.837 414.043 236.868 417.12 236.865C420.479 236.863 423.81 236.694 427.121 236.812C429.061 236.882 431.286 235.817 432.542 234.044C433.15 233.185 433.388 232.372 434.183 231.48C435.225 230.313 436.132 229.083 437.4 228.18C439.476 226.702 443.246 225.866 445.716 226.417C444.832 226.551 440.672 228.083 442.503 230.009C442.726 230.244 445.402 230.397 445.984 230.686C447.034 231.208 448.357 231.966 448.972 233.067C447.18 232.742 440.531 232.366 443.923 236.087C444.755 237.001 447.146 237.912 445.112 238.884C444.645 239.107 443.71 238.791 443.108 238.992C442.214 239.292 441.483 240.092 440.646 240.519C438.27 241.732 434.996 242.479 432.517 242.214C429.089 241.846 425.516 242.508 422.111 242.994ZM513.022 355.122C512.905 360.468 513.083 365.846 512.978 371.216C512.865 376.951 512.185 382.572 511.861 388.249C511.57 393.337 510.935 398.329 510.419 403.393C510.122 406.31 509.78 409.099 509.324 411.994C508.897 414.703 508.824 417.09 511.817 417.818C517.54 419.211 518.429 410.304 519.535 406.551C521.186 400.95 522.245 395.07 523.063 389.263C524.586 378.45 526.611 367.786 527.401 356.881C527.888 350.165 528.593 343.519 528.993 336.81C529.072 335.495 528.762 333.469 529.829 332.884C530.471 332.532 532.239 332.529 533.049 332.274C535.306 331.564 537.388 330.518 539.591 329.433C538.028 338.275 537.511 347.074 536.339 355.994C535.717 360.727 534.526 365.632 533.495 370.291C532.426 375.118 532.188 380.316 530.955 385.038C530.412 387.119 529.951 387.967 530.74 390.104C531.707 392.726 531.066 393.353 529.853 395.929C527.622 400.667 525.919 406.259 526.297 411.601C526.605 415.963 529.652 418.247 533.426 419.424C538.147 420.896 543.09 420.722 547.84 422.394C551.977 423.849 556.182 424.925 560.2 426.847C561.82 427.622 563.36 428.542 565.159 428.685C567.626 428.878 569.29 427.329 571.621 427.006C573.077 426.805 575.21 427.557 576.05 425.905C576.714 424.595 575.962 421.737 575.127 420.683C572.781 417.72 568.083 415.139 564.919 413.39C561.273 411.375 557.745 408.853 554.367 406.253C552.319 404.676 550.231 403.163 548.184 401.584C546.831 400.538 546.317 400.532 546.455 398.871C546.565 397.546 547.117 396.261 547.214 394.905C547.287 393.866 546.951 392.45 547.405 391.772C547.739 391.272 548.992 390.919 549.484 390.541C551.286 389.159 551.695 387.45 552.513 385.348C554.372 380.573 556.507 375.934 558.301 371.121C562.154 360.789 564.505 349.924 567.7 339.38C570.963 328.608 573.881 317.3 575.678 306.125C578.083 306.916 580.353 310.42 582.268 312.154C584.855 314.496 587.507 316.762 590.044 319.169C594.203 323.115 598.415 326.952 601.852 331.678C603.507 333.954 604.863 336.404 606.362 338.794C607.228 340.176 608.036 341.74 608.974 343.054C609.124 343.265 609.128 343.698 609.291 343.877C609.648 344.272 610.33 343.746 610.559 344.006C611.972 345.605 611.954 350.145 612.394 352.254C613.001 355.162 613.682 358.505 615.781 360.509C619.022 363.603 624.999 364.083 629.101 364.244C634.365 364.45 639.472 366.037 644.466 367.742C646.796 368.536 649.065 369.467 651.403 370.238C652.748 370.683 654.282 371.569 655.718 371.398C657.45 371.193 658.818 369.616 660.087 368.444C662.116 366.57 663.995 364.722 663.93 361.646C663.857 358.39 662.226 355.932 659.658 354.315C654.693 351.188 649.14 349.184 643.788 347.023C641.737 346.194 639.981 345.277 638.02 344.162C635.25 342.586 632.06 341.299 629.602 339.218C628.877 338.604 626.213 336.723 625.985 335.753C625.956 335.626 626.621 334.144 626.624 333.91C626.631 333.305 626.3 332.65 626.097 332.133C624.816 328.876 622.669 325.74 621.026 322.668C618.019 317.043 615 311.387 611.513 306.097C604.561 295.548 596.751 285.219 588.321 276.011C584.212 271.522 580.66 266.43 576.493 262.003C574.842 260.25 573.099 258.822 571.065 257.684C568.797 256.415 566.251 256.166 563.652 255.778C557.353 254.84 552.093 256.856 546.178 258.611C540.588 260.269 534.991 261.668 529.369 263.395C523.195 265.292 517.084 267.111 510.929 269.178C507.641 270.283 504.258 270.961 500.954 272.021C499.363 272.531 493.348 275.726 492.021 274.677C496.2 272.555 500.481 270.622 504.951 269.341C506.268 268.964 507.109 269.382 507.06 267.746C507.033 266.854 506.107 265.649 505.773 264.915C504.974 263.157 504.07 261.439 503.288 259.676C506.122 260.547 513.74 263.56 515.876 260.445C518.111 257.184 516.245 250.791 514.844 247.598C511.188 239.264 504.968 232.31 498.909 226.027C497.598 224.669 494.772 222.895 494.074 221.165C493.861 220.639 494.323 219.866 493.844 219.183C493.559 218.777 492.415 218.499 491.957 218.061C490.291 216.465 488.962 213.107 487.81 211.015C486.604 208.824 485.518 206.451 484.002 204.485C481.524 201.271 478.965 197.863 474.952 197.111C472.984 196.743 470.893 196.939 469.007 196.204C466.725 195.314 464.558 193.913 462.254 192.992C462.826 191.72 463.289 189.699 464.398 189.56C465.465 189.426 467.031 190.419 468.253 190.412C470.038 190.401 471.561 190.093 473.283 189.725C475.189 189.317 475.817 189.391 476.512 187.154C477.24 184.81 477.057 182.088 477.051 179.655C477.048 178.465 476.83 176.988 476.924 175.821C477.064 174.062 477.38 173.994 478.655 172.876C480.247 171.478 482.21 169.628 480.259 167.2C479.205 165.887 477.04 166.908 476.106 165.498C475.155 164.062 475.201 160.454 474.911 158.768C477.842 160.327 476.768 154.499 476.768 153.096C476.769 151.056 478.033 147.386 476.213 145.689C475.368 144.901 474.74 145.552 473.773 145.1C472.67 144.583 471.975 143.227 470.801 142.701C468.469 141.656 466.087 142.915 463.692 142.707C460.945 142.469 458.247 142.009 455.484 142.486C454.176 142.711 453.625 143.249 452.517 143.852C451.452 144.432 450.372 144.591 449.215 144.964C448.186 145.296 447.284 145.464 446.589 146.434C446.039 147.202 446.263 148.493 445.708 149.155C445.16 149.807 444.077 149.713 443.424 150.486C442.797 151.23 442.423 152.458 442.097 153.383C441.657 154.628 441.606 155.097 440.831 156.093C440.156 156.963 439.183 157.663 438.62 158.656C437.292 160.995 437.257 164.378 437.681 167.009C437.826 167.906 439.026 170.222 438.838 170.985C438.659 171.71 437.534 171.519 437.024 171.978C436.583 172.375 436.196 174.142 435.848 174.25C435.098 174.483 434.172 172.88 433.603 172.639C432.615 172.221 432.202 171.792 431.654 173.368C431.248 174.537 431.814 176.125 432.111 177.241C432.49 178.661 432.908 180.372 433.911 181.447C435.091 182.71 436.035 182.019 437.336 182.7C439.286 183.719 438.711 186.907 441.111 187.818C443.397 188.686 445.916 185.955 447.647 184.699C447.288 187.747 445.939 190.684 446.587 193.807C441.327 191.578 436.126 188.414 430.394 187.717C427.471 187.361 424.519 186.94 421.76 188.253C418.53 189.789 416.552 193.178 414.366 195.994C410.258 201.287 406.043 206.43 402.1 211.893C398.484 216.905 395.435 222.711 391.454 227.403C387.417 232.161 384.371 239.881 384.814 246.47C384.853 247.065 385.279 248.416 385.212 249.057C385.16 249.548 384.748 250.171 384.754 250.567C384.777 251.901 385.184 252.668 386.359 253.408C388.395 254.691 391.429 255.34 393.73 255.659C396.788 256.082 400.533 256.127 403.592 255.675C406.746 255.209 409.52 253.298 412.421 252.144C414.966 251.13 417.522 250.498 420.196 249.852C421.671 249.495 423.304 248.507 424.216 249.463C425.053 250.341 425.227 254.847 425.422 256.045C427.537 269.032 430.052 281.578 432.279 294.498C434.802 309.143 436.528 323.781 438.283 338.55C439.879 351.976 440.4 365.552 440.757 378.965C440.927 385.363 440.952 391.692 440.916 398.096C440.896 401.682 439.239 413.651 444.152 414.109C447.039 414.379 449.349 409.9 450.123 407.458C451.285 403.789 451.89 399.837 452.076 395.982C452.451 388.178 452.942 380.369 453.233 372.562C453.548 364.104 453.148 355.49 452.505 347.06C451.858 338.573 450.228 330.21 449.729 321.711C451.228 324.026 451.708 324.461 454.206 325.469C456.819 326.525 459.334 327.774 461.971 328.758C462.868 329.093 464.268 329.303 465.004 329.851C466.361 330.862 465.469 329.715 465.903 331.683C466.366 333.786 466.453 336.311 466.576 338.472C467.154 348.613 469.75 358.682 470.948 368.769C471.237 371.205 470.824 381.544 474.699 378.286C477.683 375.776 477.623 367.894 478.048 364.202C478.613 359.281 478.298 354.221 478.209 349.269C478.107 343.631 478.019 337.716 476.776 332.21C479.001 331.798 482.096 332.921 484.335 333.11C486.275 333.272 488.207 333.377 490.136 333.491C494.735 333.764 499.472 333.982 504.148 333.885C504.999 333.867 510.561 333.024 511.272 333.704C511.503 333.924 511.574 336.958 511.617 337.329C511.781 338.723 512.003 340.116 512.168 341.502C512.696 345.934 513.173 350.692 513.022 355.122Z" fill="black"/>
<path fill-rule="evenodd" clip-rule="evenodd" d="M430.427 397.239C426.917 398.723 423.192 399.261 419.653 400.613C416.488 401.822 413.55 403.447 410.434 404.675C410.252 403.111 410.155 400.463 410.689 398.99C411.444 396.902 413.433 396.852 415.391 396.108C420.157 394.299 425.171 393.918 429.902 391.804C429.092 393.491 429.453 395.725 430.427 397.239ZM369.841 391.781C377.421 392.022 384.665 393.931 392.135 395.111C395.771 395.685 399.409 396.197 403.048 396.733C404.448 396.939 407 396.696 408.018 398.007C408.862 399.094 407.937 402.802 408.311 404.395C406.78 404.517 404.059 402.968 402.396 402.712C399.807 402.314 397.252 401.756 394.635 401.578C390.492 401.296 386.421 401.055 382.284 400.556C378.077 400.049 374.007 399.106 369.767 398.762C367.706 398.594 366.877 399.012 366.755 396.658C366.708 395.738 366.591 394.197 366.83 393.289C366.448 392.173 366.787 391.632 367.844 391.663C368.511 391.581 369.186 391.621 369.841 391.781ZM384.502 384.268C382.452 384.061 380.393 383.762 378.338 383.637C377.921 383.611 375.808 383.749 375.463 383.33C374.974 382.737 375.518 380.568 375.608 379.897C375.913 377.615 376.25 376.288 378.551 376.283C380.492 376.278 382.502 376.722 384.436 376.927C393.216 377.858 401.952 378.251 410.635 380.019C410.106 382.454 409.506 384.967 410.138 387.457C405.973 387.69 401.4 386.822 397.33 385.933C393.169 385.024 388.754 384.573 384.502 384.268ZM398.398 361.34C401.535 361.356 404.85 362.85 407.946 362.517C407.992 363.14 407.001 362.623 406.728 363.206C406.143 363.208 405.94 363.414 406.118 363.826C406.107 364.107 406.24 364.272 406.517 364.32L406.926 364.358C407.524 364.379 407.623 364.816 407.22 365.669C407.393 366.727 407.133 368.07 407.096 369.132C401.533 368.313 396.129 367.461 390.527 367.095C387.882 366.923 385.239 366.924 382.598 366.688C379.692 366.429 376.519 366.985 373.678 366.396C372.159 366.081 372.319 366.103 372.429 363.966C372.497 362.668 372.472 361.126 373.449 360.179C375.08 358.598 378.796 359.512 380.747 359.568C386.624 359.736 392.6 360.326 398.398 361.34ZM395.187 391.858C386.783 391.032 378.443 389.224 369.992 389.224C370.589 388.578 371.891 388.411 372.635 388.059C373.483 387.657 374.283 386.802 375.112 386.451C376.775 385.746 378.467 386.725 380.175 387.148C384.295 388.169 388.522 388.203 392.649 389.205C396.914 390.239 401.236 391.194 405.581 391.72C407.65 391.97 409.87 392.478 411.914 391.886L412.412 391.502C412.591 390.679 413.087 390.459 413.9 390.842C414.934 390.629 416.249 390.904 417.29 390.932C417.332 391.382 413.489 392.791 412.756 393.141C410.991 393.982 409.794 394.597 407.908 394.237C403.662 393.426 399.486 392.457 395.187 391.858ZM424.748 365.276C424.42 366.661 423.041 366.031 421.854 366.184C420.26 366.388 418.675 366.983 417.131 367.431C414.328 368.246 411.525 369.05 408.734 369.911C408.844 368.692 408.594 365.916 409.19 364.834C409.815 363.699 412.778 363.202 414.158 362.856C417.637 361.985 421.353 362.481 424.886 362.664C424.824 363.534 424.777 364.404 424.748 365.276ZM391.335 373.942C388.035 373.639 384.731 373.404 381.421 373.278C377.637 373.135 380.387 372.481 380.467 369.984C385.441 370.842 390.458 371.011 395.416 371.745C399.524 372.354 404.417 373.942 408.607 373.088C410.583 372.687 412.601 372.532 414.703 372.304C416.686 372.089 418.558 371.09 420.517 370.842C422.716 370.563 424.963 371.9 427.151 372.254C428.078 372.403 428.294 373.084 428.731 371.876C429.186 370.623 427.885 369.6 427.373 368.851C426.775 367.976 427.023 369.396 426.691 368.03C426.598 367.647 426.85 366.685 426.897 366.273C427.014 365.23 427.317 364.099 427.364 363.059C427.408 362.103 427.415 360.644 426.456 360.086C425.871 359.745 425.456 360.242 424.946 360.146C420.963 359.397 416.278 359.335 412.238 360.058C407.86 360.842 404.091 358.767 399.775 357.925C394.711 356.938 389.595 356.79 384.488 356.373C380.122 356.017 372.144 354.168 370.48 360.202C370.009 361.912 369.323 366.619 370.59 368.073C372.253 369.984 376.104 369.374 378.254 369.871C377.932 370.86 376.975 371.534 377.306 372.712C374.292 372.867 373.76 375.946 373.287 378.821C372.799 381.796 373.752 382.978 371.124 384.527C367.462 386.686 363.583 388.866 363.655 394.008C363.69 396.593 363.958 400.492 366.411 401.833C368.811 403.145 372.719 402.923 375.364 403.399C380.486 404.322 385.626 405.405 390.779 405.959C396.266 406.549 401.845 407.033 407.341 407.296C410.336 407.441 412.922 407.93 415.815 406.84C418.658 405.768 421.44 404.985 424.374 404.189C427.27 403.404 436.136 402.347 433.553 396.988C433.14 396.131 431.726 395.449 431.498 394.638C431.13 393.33 432.373 392.309 432.322 391.128C432.227 388.965 429.972 388.694 428.415 388.694C431.084 386.888 427.51 384.75 427.531 383.217C427.568 380.515 430.673 378.762 430.849 376.498C431.276 370.987 415.119 376.725 412.632 377.917C414.546 380.988 423.427 378.33 426.071 377.865C425.711 378.89 425.366 379.812 425.261 380.862C425.177 381.717 425.479 382.695 425.202 383.556C424.766 384.918 424.781 384.657 423.235 385.028C422.092 385.303 420.962 385.62 419.822 385.911C418.072 386.357 415.319 387.556 413.584 387.491C412.063 387.434 412.364 387.944 412.085 386.116C411.934 385.134 412.191 384.089 412.344 383.127C412.663 381.11 413.13 379.201 411.502 377.754C409.95 376.374 406.678 375.717 404.774 375.23C400.549 374.151 395.671 373.886 391.335 373.942Z" fill="black"/>
<path fill-rule="evenodd" clip-rule="evenodd" d="M371.226 339.518C375.816 338.685 380.479 338.481 385.122 338.733L384.367 342.461C380.017 341.249 375.603 340.539 371.226 339.518ZM408.545 349.161C410.385 349.015 409.105 349.906 408.65 351.209C408.092 352.811 408.212 354.835 408.083 356.521C402.698 354.299 396.433 352.999 390.707 352.251C387.992 351.897 385.237 351.795 382.507 351.643C381.7 351.599 378.785 351.964 378.195 351.377C377.756 350.94 378.064 348.53 378.485 347.998C380.777 345.108 389.635 347.603 392.84 347.862C398.095 348.287 403.254 349.302 408.545 349.161ZM400.897 341.416C396.128 341.912 391.524 341.865 386.756 342.638C387.117 339.358 386.685 338.521 390.124 338.347C393.188 338.192 396.242 338.067 399.292 338.069C406.15 338.073 412.992 337.931 419.859 337.931V341.264C413.509 340.56 407.259 341.831 400.897 341.416ZM423.826 353.672C420.817 353.658 417.972 354.886 414.963 355.204C413.161 355.395 413.727 355.637 412.478 356.615C410.532 358.14 409.971 357.328 410.215 355.256C411.042 348.25 419.241 349.822 423.965 349.432C423.655 351.103 424.369 352.519 425.42 353.672H423.826ZM391.299 344.676C395.627 344.752 399.961 345.018 404.259 344.921C406.183 344.878 408.675 344.465 410.561 344.82C411.942 345.08 413.097 345.841 414.612 346.124C412.387 347.421 411.259 346.545 408.919 346.25C406.582 345.955 404.21 345.96 401.862 345.807C398.008 345.555 393.899 344.556 390.102 344.827C390.033 344.249 390.431 344.198 391.299 344.676ZM425.63 359.85C427.616 359.845 424.883 357.402 424.525 357.159C426.723 357.159 427.256 355.733 426.619 353.441C426.018 351.282 425.574 351.943 427.084 350.145C428.221 348.791 428.393 347.794 427.053 346.28C425.689 344.74 422.928 345.176 421.719 343.905C419.662 341.742 422.317 337.433 419.466 335.776C417.54 334.656 414.434 334.795 412.306 334.558C410.25 334.329 408.122 334.285 406.053 334.255C401.541 334.188 396.854 335.007 392.362 335.457C390.724 335.621 388.883 336.337 387.27 336.338C385.624 336.34 383.901 335.944 382.202 335.99C380.227 336.043 378.324 335.886 376.288 336.236C374.727 336.505 371.084 336.647 369.891 337.902C365.916 342.084 375.341 344.005 376.963 344.475C375.313 346.431 375.381 349.017 375.63 351.48C374.844 351.48 373.49 351.11 373.083 352.063C372.578 353.247 374.448 353.554 374.89 353.692C377.433 354.487 380.409 354.269 383.029 354.558C388.268 355.135 393.444 355.467 398.628 356.541C401.155 357.064 403.667 357.712 406.192 358.221C406.628 358.31 407.066 358.38 407.506 358.434C408.182 358.371 408.4 358.83 408.162 359.812C408.863 360.183 411.476 359.26 412.284 359.118C416.909 358.307 421.047 358.644 425.63 359.85ZM332.228 408.445C335.211 410.985 337.985 413.382 341.215 415.589C338.931 415.512 331.336 411.571 332.228 408.445ZM333.393 404.305C335.021 402.792 336.639 402.946 338.654 402.487C340.51 402.065 342.314 401.337 344.166 400.853C345.619 400.473 347.058 399.959 348.506 399.6C350.551 399.093 350.753 399.652 352.634 400.811C359.304 404.924 366.769 407.753 373.794 411.091C371.731 413.056 367.091 413.14 364.513 413.767C362.631 414.224 360.839 414.849 359.037 415.572C357.358 416.247 354.653 417.798 352.883 417.849C351.388 417.893 350.173 416.302 348.886 415.445C347.194 414.317 345.509 413.209 343.803 412.109C340.194 409.782 336.819 406.931 333.393 404.305ZM363.537 420.964C364.308 420.163 366.625 420.198 367.591 419.953C369.493 419.473 371.366 418.973 373.294 418.612C376.421 418.026 381.361 417.765 381.701 413.375C381.984 409.727 377.91 408.861 375.527 407.625C371.944 405.766 368.287 404.05 364.613 402.41C361.168 400.874 357.673 399.574 354.165 398.246C353.481 397.987 352.926 398.023 352.367 397.43C351.927 396.963 352.063 396.055 351.58 395.567C350.474 394.448 349.04 395.037 347.711 395.324C344.693 395.975 341.56 396.83 338.684 398.038C335.694 399.293 333.02 399.555 332.302 403.222C330.773 402.446 329.624 402.333 329.807 404.613C329.86 405.283 330.31 406.012 330.418 406.703C330.577 407.721 330.299 408.795 330.455 409.816C331.027 413.529 335.656 416.28 338.523 417.738C342.059 419.536 346.621 422.192 350.569 422.543C354.776 422.917 359.361 421.129 363.537 420.965" fill="black"/>
<path fill-rule="evenodd" clip-rule="evenodd" d="M417.086 359.361L420.849 359.386C419.597 359.132 418.343 359.129 417.086 359.361ZM490.462 215.782L491.591 217.817C491.463 216.943 491.176 216.194 490.462 215.782ZM414.828 359.381L417.086 359.358C416.347 359.135 415.564 359.143 414.828 359.381ZM384.882 243.873C384.903 243.058 384.924 242.243 384.946 241.43C384.923 242.245 384.903 243.058 384.882 243.873ZM512.828 366.82L512.874 364.785C512.858 365.464 512.844 366.142 512.828 366.82ZM492.343 333.64C491.84 333.64 491.338 333.641 490.838 333.642C491.342 333.642 491.843 333.641 492.343 333.64ZM455.338 142.562L456.933 142.342C456.406 142.474 455.828 141.985 455.338 142.562ZM388.865 355.23C388.486 355.222 388.109 355.213 387.736 355.205C388.114 355.214 388.489 355.222 388.865 355.23ZM516.618 256.493C516.615 257.037 516.612 257.58 516.61 258.121L516.618 256.493ZM430.729 375.369C430.743 375.913 430.756 376.456 430.77 376.998C430.976 376.44 430.953 375.899 430.729 375.369ZM379.081 373.025C379.408 373.383 379.828 373.171 380.21 373.194L379.081 373.025ZM423.859 360C424.356 360.254 424.858 360.289 425.364 360.017L423.859 360ZM512.835 355.014C512.845 354.606 512.856 354.198 512.867 353.793C512.857 354.201 512.846 354.608 512.835 355.014ZM381.339 335.986C381.842 336.267 382.343 336.232 382.844 335.983L381.339 335.986ZM405.045 406.932C404.793 406.924 404.541 406.917 404.292 406.909C404.546 406.917 404.795 406.925 405.045 406.932ZM444.931 413.833C444.679 413.839 444.427 413.844 444.179 413.85C444.432 413.845 444.681 413.839 444.931 413.833ZM539.003 393.88C539.631 393.889 540.26 393.897 540.884 393.906L539.003 393.88ZM487.452 312.893C488.08 312.883 488.709 312.872 489.333 312.862C488.703 312.873 488.077 312.884 487.452 312.893ZM535.993 393.897L537.498 393.889C536.993 393.892 536.493 393.895 535.993 393.897ZM516.626 348.5C516.618 347.957 516.61 347.414 516.602 346.872L516.626 348.5ZM432.514 242.104L431.009 241.977C431.511 242.019 432.012 242.062 432.514 242.104ZM474.398 358.271C473.575 360.477 474.037 358.915 474.016 359.424C474.716 359.526 474.844 359.141 474.398 358.271ZM508.9 311.272C509.277 311.257 509.655 311.243 510.029 311.227C509.649 311.242 509.275 311.256 508.9 311.272ZM447.043 304.939L446.959 303.718C446.987 304.126 447.015 304.532 447.043 304.939ZM444.409 371.298L444.325 370.077C444.353 370.485 444.381 370.891 444.409 371.298ZM446.684 303.311C446.645 302.903 446.604 302.496 446.565 302.089L446.684 303.311ZM443.585 358.271C443.719 357.85 443.784 357.435 443.526 357.049L443.585 358.271ZM449.995 350.536L450.027 351.757C450.016 351.349 450.006 350.942 449.995 350.536ZM423.483 242.806C422.978 242.839 422.423 242.576 421.978 242.961L423.483 242.806ZM501.374 328.649L499.869 328.656C500.373 328.919 500.875 328.944 501.374 328.649ZM491.967 328.821C491.465 328.778 490.964 328.734 490.462 328.69C490.964 328.734 491.465 328.778 491.967 328.821ZM449.271 400.61C449.263 401.018 449.254 401.425 449.246 401.832C449.254 401.423 449.263 401.017 449.271 400.61ZM441.408 336.694C441.374 336.287 441.339 335.879 441.305 335.473L441.408 336.694ZM424.091 227.995C424.061 227.587 424.033 227.18 424.004 226.774L424.091 227.995ZM459.806 192.984C459.798 193.391 459.792 193.799 459.784 194.205L459.806 192.984ZM564.967 422.073C564.464 421.793 563.963 421.873 563.462 422.075L564.967 422.073ZM377.2 383.357L375.318 383.202C375.903 383.6 376.572 383.306 377.2 383.357ZM392.251 391.515L390.746 391.386C391.248 391.429 391.75 391.472 392.251 391.515ZM387.736 377.198C388.113 377.201 388.491 377.203 388.865 377.205C388.486 377.202 388.11 377.2 387.736 377.198ZM378.329 399.626L376.823 399.488C377.292 399.844 377.821 399.639 378.329 399.626ZM398.272 361.322C398.524 361.324 398.776 361.325 399.024 361.326L398.272 361.322ZM407.303 362.456C407.429 362.791 408.094 362.748 408.053 362.405L407.303 362.456ZM373.437 366.128C373.061 366.122 372.684 366.115 372.308 366.108C372.68 366.396 373.057 366.355 373.437 366.128ZM387.736 360.097C387.988 360.101 388.24 360.105 388.488 360.108L387.736 360.097ZM392.251 401.306C391.748 401.107 391.246 401.039 390.746 401.311L392.251 401.306ZM393.049 345.19L393.756 344.925C392.878 344.913 392 344.901 391.122 344.89C391.12 344.89 392.948 345.198 393.049 345.19ZM399.777 338.12L401.658 338.118C401.029 338.119 400.403 338.12 399.777 338.12ZM423.483 353.681C422.857 353.41 422.23 353.463 421.602 353.674L423.483 353.681ZM393.38 341.716C392.752 341.761 392.125 341.805 391.499 341.85C392.125 341.805 392.753 341.761 393.38 341.716ZM399.777 345.065L400.529 345.014C400.277 345.031 400.027 345.048 399.777 345.065ZM404.669 345.051C404.921 345.043 405.173 345.035 405.421 345.029L404.669 345.051ZM391.122 344.672C391.122 344.778 389.989 344.243 389.993 344.74L391.122 344.672ZM528.843 318.812C528.436 317.013 528.547 315.605 527.096 316.755C526.299 317.386 524.986 320.587 525.086 321.671C525.208 323.008 525.772 323.541 526.935 323.116C528.273 322.626 528.803 320.158 528.843 318.812ZM455.531 307.89C452.161 307.89 453.632 311.77 456.441 311.856C457.731 311.897 459.588 311.621 459.17 309.752C458.946 308.754 455.672 307.409 455.531 307.89ZM491.676 315.524C489.243 316.798 492.666 322.389 494.876 321.005C497.707 319.233 492.676 316.322 491.676 315.524ZM497.595 320.817C496.799 321.756 493.21 324.942 495.188 326.223C497.62 327.799 499.472 322.598 497.595 320.817ZM538.372 318.374C539.163 316.718 538.074 312.385 535.657 313.177C533.226 313.975 537.033 317.934 538.372 318.374ZM484.69 319.328C483.112 318.641 483.413 320.674 483.174 321.33C482.904 322.075 481.515 323.89 481.863 324.683C482.38 325.859 483.617 325.11 484.288 324.346C485.464 323.006 485.381 320.857 484.69 319.328ZM508.734 321.213C510.049 321.213 513.189 317.111 511.344 316.422C509.055 315.568 507.141 321.514 508.734 321.213ZM463.291 314.71C462.087 315.032 460.493 318.72 462.308 319.148C464.317 319.623 464.676 315.73 463.291 314.71ZM470.593 321.631C471.537 319.663 471.77 315.45 469.464 318.832C468.964 319.564 468.449 319.268 468.705 320.476C468.93 321.531 469.825 321.631 470.593 321.631ZM520.345 311.453C519.382 313.02 519.666 317.937 521.678 315.029C522.534 313.793 521.944 311.512 520.345 311.453ZM471.953 163.712C470.085 163.19 469.638 167.954 470.727 168.479C472.252 169.215 472.061 164.508 471.953 163.712ZM353.811 405.76C355.545 405.65 357.973 405.139 355.347 403.808C353.681 402.964 351.204 402.906 349.445 403.252C348.232 403.49 346.413 404.578 348.264 405.987C349.347 406.812 352.494 405.8 353.811 405.76M355.754 409.16L357.256 408.976C356.855 408.188 355.687 408.022 355.754 409.16Z" fill="black"/>
<path d="M158.649 26.9617L204.331 27.9066L205.764 434.547L162.299 433.648L158.649 26.9617Z" fill="#2A4264"/>
<ellipse cx="7.61345" cy="7.58864" rx="7.61345" ry="7.58864" transform="matrix(0.998467 -0.0553524 0.0557161 0.998447 175 60.8425)" fill="white"/>
<rect width="76.0397" height="415.472" transform="matrix(0.988327 -0.152349 0.169692 0.985497 0.999939 23.5844)" fill="#BE7445"/>
<ellipse cx="7.61345" cy="7.58864" rx="7.61345" ry="7.58864" transform="matrix(0.998467 -0.0553524 0.0557161 0.998447 41.9999 59.8428)" fill="white"/>
<rect width="60.6853" height="290.081" transform="matrix(0.993817 -0.111035 0.114764 0.993393 211.399 148.979)" fill="#FFC05F"/>
<ellipse cx="7.61345" cy="7.58864" rx="7.61345" ry="7.58864" transform="matrix(0.998467 -0.0553524 0.0557161 0.998447 238 174.843)" fill="white"/>
<path d="M263.897 399.949C263.763 398.743 263.846 397.675 264.145 396.744C264.443 395.8 264.936 395.049 265.626 394.492C266.315 393.935 267.17 393.601 268.191 393.491C269.199 393.382 270.106 393.525 270.915 393.921C271.71 394.317 272.357 394.945 272.854 395.803C273.351 396.648 273.665 397.674 273.799 398.88L274.148 402.02L278.164 401.587L278.451 404.171L264.532 405.674L263.897 399.949ZM271.625 399.235C271.5 398.109 271.167 397.28 270.625 396.748C270.083 396.217 269.368 395.999 268.48 396.095C267.592 396.191 266.941 396.556 266.529 397.19C266.116 397.825 265.972 398.706 266.097 399.832L266.432 402.853L271.96 402.257L271.625 399.235ZM276.196 382.03C276.354 383.448 276.191 384.76 275.707 385.965C275.211 387.172 274.455 388.159 273.44 388.926C272.412 389.694 271.221 390.151 269.869 390.297C268.517 390.443 267.261 390.25 266.102 389.718C264.93 389.187 263.976 388.385 263.24 387.311C262.49 386.239 262.037 384.994 261.88 383.576C261.722 382.158 261.892 380.845 262.389 379.639C262.872 378.433 263.621 377.447 264.636 376.68C265.651 375.913 266.842 375.456 268.207 375.309C269.572 375.161 270.835 375.354 271.994 375.886C273.153 376.418 274.107 377.22 274.856 378.292C275.592 379.366 276.039 380.612 276.196 382.03ZM273.93 382.275C273.827 381.347 273.529 380.534 273.035 379.837C272.529 379.14 271.881 378.62 271.092 378.276C270.289 377.934 269.424 377.813 268.496 377.913C267.568 378.013 266.756 378.315 266.061 378.82C265.352 379.325 264.834 379.971 264.505 380.758C264.163 381.546 264.044 382.403 264.147 383.331C264.249 384.259 264.554 385.071 265.061 385.767C265.554 386.465 266.202 386.985 267.004 387.327C267.794 387.671 268.652 387.793 269.58 387.693C270.508 387.593 271.327 387.29 272.035 386.784C272.73 386.28 273.249 385.634 273.591 384.846C273.92 384.059 274.033 383.202 273.93 382.275ZM273.278 357.527L264.054 358.543L272.196 362.291L272.324 363.444L265.315 368.827L274.422 367.844L274.693 370.289L260.774 371.792L260.538 369.665L269.134 363.165L259.323 358.712L259.09 356.605L273.004 355.062L273.278 357.527ZM268.174 340.901L268.946 347.859L272.319 348.882L272.614 351.546L258.001 346.788L257.719 344.243L270.941 336.459L271.241 339.162L268.174 340.901ZM266.241 341.975L260.447 345.256L266.82 347.203L266.241 341.975ZM255.26 322.072L269.179 320.569L269.465 323.153L263.5 323.797L264.298 330.993L270.264 330.349L270.55 332.933L256.631 334.436L256.344 331.852L262.091 331.232L261.293 324.036L255.546 324.656L255.26 322.072ZM254.67 316.758L254.388 314.213L264.271 313.146L253.559 306.739L253.293 304.334L267.212 302.831L267.494 305.375L257.631 306.44L268.323 312.849L268.589 315.254L254.67 316.758Z" fill="white"/>
<path d="M188.974 371.184L194.154 371.163L194.17 373.563L191.19 373.575L191.264 384.315L194.244 384.303L194.261 386.723L189.081 386.723L189.077 386.123C189.03 385.244 188.38 384.633 187.124 384.291C185.855 383.936 184.047 383.723 181.699 383.653L177.258 383.51L177.188 373.251L188.988 373.204L188.974 371.184ZM181.924 381.372C183.738 381.431 185.252 381.572 186.467 381.794C187.668 382.016 188.531 382.372 189.054 382.863L189.005 375.764L179.406 375.802L179.443 381.282L181.924 381.372ZM177.148 367.363L177.13 364.803L187.07 364.763L177.078 357.283L177.062 354.863L191.062 354.807L191.079 357.367L181.159 357.407L191.131 364.887L191.148 367.307L177.148 367.363ZM179.156 339.369L179.187 344.009L190.987 343.962L191.005 346.542L179.205 346.589L179.237 351.209L177.037 351.218L176.956 339.378L179.156 339.369ZM176.861 325.641L190.861 325.586L190.879 328.146L186.979 328.161L187.003 331.621L187.005 331.901L190.922 334.485L190.941 337.225L186.601 334.243C186.247 335.217 185.686 335.973 184.916 336.509C184.133 337.032 183.188 337.296 182.082 337.301C181.015 337.305 180.093 337.069 179.317 336.592C178.54 336.115 177.949 335.437 177.543 334.559C177.123 333.68 176.91 332.648 176.901 331.461L176.861 325.641ZM179.101 331.372C179.108 332.439 179.36 333.258 179.858 333.829C180.355 334.388 181.077 334.665 182.023 334.661C182.943 334.657 183.655 334.381 184.158 333.832C184.647 333.284 184.889 332.489 184.881 331.449L184.859 328.17L179.079 328.193L179.101 331.372ZM176.753 309.764L190.752 309.708L190.77 312.288L185.49 312.309C185.993 313.627 186.248 314.88 186.256 316.066C186.268 317.853 185.851 319.234 185.004 320.211C184.144 321.175 182.908 321.66 181.294 321.666L176.834 321.684L176.817 319.104L180.997 319.087C181.983 319.083 182.735 318.794 183.251 318.218C183.767 317.643 184.021 316.822 184.014 315.755C184.006 314.542 183.751 313.396 183.25 312.318L176.77 312.344L176.753 309.764ZM176.716 304.42L176.698 301.86L190.698 301.805L190.716 304.365L176.716 304.42ZM184.679 284.398L184.697 286.998L190.597 286.974L190.614 289.534L176.614 289.59L176.597 287.03L182.457 287.007L182.438 284.327L176.551 280.33L176.532 277.57L183.345 282.323L190.53 277.334L190.551 280.274L184.679 284.398ZM176.424 261.786L190.423 261.73L190.441 264.33L184.441 264.354L184.491 271.594L190.491 271.57L190.509 274.17L176.509 274.225L176.491 271.625L182.271 271.602L182.221 264.363L176.441 264.386L176.424 261.786ZM176.387 256.439L176.369 253.879L186.309 253.839L176.318 246.359L176.301 243.939L190.301 243.883L190.319 246.443L180.399 246.483L190.37 253.963L190.387 256.383L176.387 256.439ZM178.399 229.105L178.447 236.045L190.247 235.978L190.264 238.538L176.265 238.594L176.199 229.094L178.399 229.105ZM176.175 225.495L176.157 222.935L186.097 222.895L176.106 215.415L176.089 212.995L190.089 212.939L190.106 215.499L180.186 215.539L190.158 223.019L190.175 225.439L176.175 225.495Z" fill="white"/>
<path d="M109.268 383.641L115.642 382.497L116.18 385.448L112.514 386.106L114.925 399.313L118.592 398.655L119.135 401.63L112.757 402.75L112.623 402.013C112.376 400.939 111.443 400.328 109.823 400.179C108.183 400.016 105.911 400.144 103.006 400.565L97.5077 401.349L95.2043 388.732L109.722 386.125L109.268 383.641ZM102.79 397.708C105.036 397.389 106.93 397.235 108.474 397.246C110.001 397.259 111.14 397.512 111.891 398.004L110.297 389.273L98.4857 391.394L99.716 398.133L102.79 397.708ZM92.5937 374.434C92.3213 372.942 92.3309 371.602 92.6224 370.415C92.911 369.212 93.4607 368.233 94.2716 367.478C95.0825 366.722 96.1195 366.231 97.3826 366.004C98.6293 365.781 99.7741 365.88 100.817 366.302C101.843 366.727 102.704 367.453 103.4 368.48C104.093 369.49 104.575 370.741 104.848 372.233L105.557 376.119L110.528 375.226L111.111 378.423L93.8868 381.517L92.5937 374.434ZM102.168 372.867C101.913 371.473 101.425 370.468 100.703 369.853C99.9806 369.238 99.0699 369.029 97.9708 369.226C96.8717 369.424 96.0928 369.936 95.6339 370.763C95.1751 371.591 95.0729 372.702 95.3273 374.095L96.0098 377.833L102.85 376.605L102.168 372.867ZM101.702 349.434L103.273 358.042L107.569 359.023L108.171 362.319L89.5322 357.665L88.9575 354.517L104.763 343.652L105.374 346.997L101.702 349.434ZM99.385 350.943L92.4481 355.541L100.566 357.411L99.385 350.943ZM101.08 323.477L89.6667 325.552L100.148 329.512L100.409 330.938L92.1402 338.265L103.41 336.241L103.962 339.266L86.7378 342.36L86.2573 339.728L96.4063 330.87L83.7833 326.177L83.3073 323.57L100.523 320.428L101.08 323.477ZM93.2592 303.193L94.8308 311.801L99.1268 312.782L99.7285 316.077L81.0897 311.424L80.515 308.276L96.3205 297.411L96.9312 300.755L93.2592 303.193ZM90.9425 304.701L84.0056 309.3L92.1234 311.169L90.9425 304.701Z" fill="white"/>
</svg>
